<?xml version="1.0" encoding="utf-8"?>
<!-- Generator: Adobe Illustrator 16.0.3, SVG Export Plug-In . SVG Version: 6.00 Build 0)  -->
<!DOCTYPE svg PUBLIC "-//W3C//DTD SVG 1.1//EN" "http://www.w3.org/Graphics/SVG/1.1/DTD/svg11.dtd">
<svg version="1.1" id="Layer_1" xmlns="http://www.w3.org/2000/svg" xmlns:xlink="http://www.w3.org/1999/xlink" x="0px" y="0px"
	 width="1792px" height="1792px" viewBox="0 0 1792 1792" enable-background="new 0 0 1792 1792" xml:space="preserve">
<path fill="#10222B" d="M1367.264,1229.813V758.547c-13.09,14.728-27.203,28.227-42.34,40.5
	c-109.635,84.272-196.77,153.408-261.404,207.406c-20.863,17.591-37.84,31.294-50.93,41.112
	c-13.092,9.817-30.785,19.739-53.079,29.762c-22.294,10.021-43.261,15.034-62.897,15.034h-1.226
	c-19.637,0-40.602-5.013-62.896-15.034c-22.295-10.022-39.988-19.943-53.079-29.762c-13.09-9.818-30.067-23.522-50.931-41.112
	c-64.635-53.999-151.771-123.134-261.405-207.406c-15.136-12.272-29.249-25.772-42.34-40.5v471.265c0,5.317,1.943,9.92,5.829,13.807
	c3.886,3.886,8.488,5.83,13.807,5.83h903.257c5.316,0,9.92-1.944,13.807-5.83C1365.32,1239.732,1367.264,1235.13,1367.264,1229.813z
	 M1367.264,584.892v-15.034l-0.307-7.977l-1.84-7.67l-3.375-5.523l-5.523-4.603l-8.592-1.535H444.372
	c-5.317,0-9.92,1.944-13.807,5.83s-5.829,8.488-5.829,13.807c0,68.726,30.068,126.816,90.203,174.27
	c78.953,62.18,160.974,127.02,246.063,194.52c2.455,2.045,9.614,8.078,21.477,18.102c11.864,10.022,21.272,17.692,28.227,23.012
	c6.954,5.317,16.057,11.761,27.306,19.326c11.25,7.57,21.58,13.194,30.988,16.877c9.409,3.682,18.205,5.522,26.386,5.522h1.227
	c8.181,0,16.977-1.841,26.385-5.522c9.408-3.683,19.739-9.307,30.988-16.877c11.25-7.566,20.354-14.009,27.307-19.326
	c6.955-5.319,16.363-12.989,28.227-23.012c11.863-10.023,19.021-16.057,21.477-18.102c85.09-67.5,167.111-132.339,246.064-194.52
	c22.09-17.591,42.646-41.216,61.668-70.875C1357.754,635.925,1367.264,609.028,1367.264,584.892z M1445.809,562.188v667.625
	c0,26.999-9.613,50.112-28.84,69.34c-19.229,19.227-42.342,28.84-69.34,28.84H444.372c-27,0-50.112-9.613-69.34-28.84
	c-19.227-19.228-28.84-42.341-28.84-69.34V562.188c0-27,9.613-50.113,28.84-69.34c19.228-19.227,42.34-28.84,69.34-28.84h903.255
	c27,0,50.113,9.613,69.34,28.84C1436.195,512.075,1445.809,535.188,1445.809,562.188z"/>
</svg>
