<?xml version="1.0" encoding="utf-8"?>
<!-- Generator: Adobe Illustrator 16.0.3, SVG Export Plug-In . SVG Version: 6.00 Build 0)  -->
<!DOCTYPE svg PUBLIC "-//W3C//DTD SVG 1.1//EN" "http://www.w3.org/Graphics/SVG/1.1/DTD/svg11.dtd">
<svg version="1.1" id="Layer_1" xmlns="http://www.w3.org/2000/svg" xmlns:xlink="http://www.w3.org/1999/xlink" x="0px" y="0px"
	 width="1792px" height="1792px" viewBox="0 0 1792 1792" enable-background="new 0 0 1792 1792" xml:space="preserve">
<path fill="#10222B" d="M1290.271,605.366c10.514,10.514,19.525,24.783,27.035,42.808c7.509,18.023,11.265,34.544,11.265,49.565
	v648.855c0,15.021-5.258,27.787-15.771,38.301c-10.514,10.516-23.281,15.771-38.301,15.771H517.501
	c-15.021,0-27.787-5.256-38.301-15.771c-10.513-10.514-15.771-23.279-15.771-38.301V445.406c0-15.021,5.257-27.787,15.771-38.301
	c10.514-10.514,23.28-15.771,38.301-15.771h504.665c15.021,0,31.541,3.754,49.565,11.265s32.293,16.521,42.807,27.035
	L1290.271,605.366z M1040.19,467.936v211.779h211.778c-3.754-10.89-7.885-18.587-12.391-23.093l-176.296-176.296
	C1058.777,475.82,1051.078,471.69,1040.19,467.936z M1256.475,1328.57V751.81h-234.309c-15.021,0-27.786-5.257-38.301-15.771
	c-10.514-10.514-15.771-23.281-15.771-38.3v-234.31h-432.57v865.142H1256.475L1256.475,1328.57z M679.714,841.928
	c0-5.256,1.689-9.575,5.069-12.954c3.379-3.38,7.697-5.069,12.955-5.069h396.522c5.257,0,9.575,1.69,12.954,5.069
	s5.068,7.698,5.068,12.954v36.047c0,5.258-1.689,9.575-5.068,12.955c-3.379,3.38-7.698,5.069-12.954,5.069H697.738
	c-5.258,0-9.575-1.69-12.955-5.069c-3.38-3.379-5.069-7.697-5.069-12.955V841.928L679.714,841.928z M1094.261,968.095
	c5.258,0,9.576,1.69,12.955,5.069s5.068,7.697,5.068,12.955v36.047c0,5.256-1.689,9.574-5.068,12.955
	c-3.379,3.379-7.698,5.068-12.955,5.068H697.738c-5.258,0-9.575-1.689-12.955-5.068c-3.38-3.381-5.069-7.699-5.069-12.955v-36.047
	c0-5.258,1.689-9.576,5.069-12.955c3.379-3.379,7.697-5.069,12.955-5.069H1094.261L1094.261,968.095z M1094.261,1112.285
	c5.258,0,9.576,1.689,12.955,5.068s5.068,7.697,5.068,12.955v36.047c0,5.258-1.689,9.574-5.068,12.953
	c-3.379,3.381-7.698,5.07-12.955,5.07H697.738c-5.258,0-9.575-1.689-12.955-5.07c-3.38-3.379-5.069-7.697-5.069-12.953v-36.047
	c0-5.258,1.689-9.576,5.069-12.955c3.379-3.379,7.697-5.068,12.955-5.068H1094.261z"/>
</svg>
