<?xml version="1.0" encoding="utf-8"?>
<!-- Generator: Adobe Illustrator 16.0.3, SVG Export Plug-In . SVG Version: 6.00 Build 0)  -->
<!DOCTYPE svg PUBLIC "-//W3C//DTD SVG 1.1//EN" "http://www.w3.org/Graphics/SVG/1.1/DTD/svg11.dtd">
<svg version="1.1" id="Layer_1" xmlns="http://www.w3.org/2000/svg" xmlns:xlink="http://www.w3.org/1999/xlink" x="0px" y="0px"
	 width="1792px" height="1792px" viewBox="0 0 1792 1792" enable-background="new 0 0 1792 1792" xml:space="preserve">
<path fill="#10222B" d="M1353.321,1259.223c24.564,39.043,29.28,72.492,14.146,100.349s-45.951,41.784-92.451,41.784H516.984
	c-46.499,0-77.317-13.928-92.451-41.784c-15.135-27.856-10.419-61.306,14.147-100.349l330.981-521.804V474.87h-42.113
	c-11.405,0-21.275-4.168-29.61-12.503c-8.335-8.334-12.503-18.205-12.503-29.61s4.168-21.276,12.503-29.61
	s18.205-12.502,29.61-12.502h336.903c11.406,0,21.276,4.167,29.61,12.502c8.335,8.334,12.502,18.205,12.502,29.61
	s-4.167,21.276-12.502,29.61c-8.334,8.335-18.205,12.503-29.61,12.503h-42.112v262.548L1353.321,1259.223z M840.729,782.164
	l-178.98,282.288h468.507L951.273,782.164l-13.16-20.399V474.87h-84.227v286.895L840.729,782.164z"/>
</svg>
