<?xml version="1.0" encoding="utf-8"?>
<!-- Generator: Adobe Illustrator 16.0.3, SVG Export Plug-In . SVG Version: 6.00 Build 0)  -->
<!DOCTYPE svg PUBLIC "-//W3C//DTD SVG 1.1//EN" "http://www.w3.org/Graphics/SVG/1.1/DTD/svg11.dtd">
<svg version="1.1" id="Layer_1" xmlns="http://www.w3.org/2000/svg" xmlns:xlink="http://www.w3.org/1999/xlink" x="0px" y="0px"
	 width="1792px" height="1792px" viewBox="0 0 1792 1792" enable-background="new 0 0 1792 1792" xml:space="preserve">
<path fill="#10222B" d="M1664,896c0,167.333-48.833,317.833-146.5,451.5S1293.667,1573.667,1139,1625c-18,3.333-31.167,1-39.5-7
	s-12.5-18-12.5-30v-211c0-64.667-17.333-112-52-142c38-4,72.167-10,102.5-18s61.667-21,94-39s59.333-40.167,81-66.5
	s39.333-61.333,53-105S1386,912.667,1386,856c0-80.667-26.333-149.333-79-206c24.667-60.667,22-128.667-8-204
	c-18.667-6-45.667-2.333-81,11s-66,28-92,44l-38,24c-62-17.333-126-26-192-26s-130,8.667-192,26
	c-10.667-7.333-24.833-16.333-42.5-27S616,474.5,578,459.5S511.333,440,492,446c-29.333,75.333-31.667,143.333-7,204
	c-52.667,56.667-79,125.333-79,206c0,56.667,6.833,106.667,20.5,150s31.167,78.333,52.5,105s48.167,49,80.5,67s63.667,31,94,39
	s64.5,14,102.5,18c-26.667,24-43,58.333-49,103c-14,6.667-29,11.667-45,15s-35,5-57,5s-43.833-7.167-65.5-21.5
	s-40.167-35.167-55.5-62.5c-12.667-21.333-28.833-38.667-48.5-52s-36.167-21.333-49.5-24l-20-3c-14,0-23.667,1.5-29,4.5
	s-7,6.833-5,11.5s5,9.333,9,14s8.333,8.667,13,12l7,5c14.667,6.667,29.167,19.333,43.5,38c14.333,18.667,24.833,35.667,31.5,51
	l10,23c8.667,25.333,23.333,45.833,44,61.5s43,25.667,67,30s47.167,6.667,69.5,7s40.833-0.833,55.5-3.5l23-4
	c0,25.333,0.167,55,0.5,89s0.5,52,0.5,54c0,12-4.333,22-13,30s-22,10.333-40,7c-154.667-51.333-280.833-143.833-378.5-277.5
	S128,1063.333,128,896c0-139.333,34.333-267.833,103-385.5S392.833,299.667,510.5,231C628.167,162.333,756.667,128,896,128
	s267.833,34.333,385.5,103s210.833,161.833,279.5,279.5S1664,756.667,1664,896z"/>
</svg>
