<?xml version="1.0" encoding="utf-8"?>
<!-- Generator: Adobe Illustrator 16.0.3, SVG Export Plug-In . SVG Version: 6.00 Build 0)  -->
<!DOCTYPE svg PUBLIC "-//W3C//DTD SVG 1.1//EN" "http://www.w3.org/Graphics/SVG/1.1/DTD/svg11.dtd">
<svg version="1.1" id="Layer_1" xmlns="http://www.w3.org/2000/svg" xmlns:xlink="http://www.w3.org/1999/xlink" x="0px" y="0px"
	 width="1792px" height="1792px" viewBox="0 0 1792 1792" enable-background="new 0 0 1792 1792" xml:space="preserve">
<path fill="#10222B" d="M1280.271,858.932l11.121,195.227c1.647,28.418-15.238,54.777-50.659,79.075
	c-35.421,24.302-83.815,43.558-145.184,57.766s-127.885,21.314-199.549,21.314c-71.665,0-138.183-7.106-199.551-21.314
	s-109.762-33.464-145.183-57.766c-35.422-24.298-52.308-50.657-50.659-79.075l11.119-195.227l354.618,111.821
	c9.061,2.886,18.946,4.325,29.655,4.325c10.708,0,20.593-1.439,29.654-4.325L1280.271,858.932z M1607.706,658.765
	c0,9.473-4.53,15.856-13.591,19.151L902.178,895.382c-1.647,0.411-3.706,0.617-6.177,0.617c-2.472,0-4.531-0.206-6.179-0.617
	L487.017,768.115c-17.71,14.003-32.332,36.964-43.864,68.885c-11.532,31.92-18.534,68.68-21.006,110.277
	c25.948,14.827,38.922,37.274,38.922,67.341c0,28.419-11.944,50.453-35.832,66.104l35.832,267.507
	c0.824,5.767-0.823,10.915-4.941,15.446c-3.707,4.528-8.65,6.796-14.828,6.796H322.681c-6.178,0-11.12-2.268-14.826-6.796
	c-4.119-4.531-5.768-9.68-4.942-15.446l35.832-267.507c-23.889-15.651-35.832-37.686-35.832-66.104
	c0-30.066,13.386-52.927,40.157-68.577c4.529-85.257,24.711-153.215,60.543-203.874l-205.727-64.251
	c-9.062-3.295-13.592-9.679-13.592-19.151c0-9.474,4.53-15.857,13.592-19.152l691.937-217.466c1.647-0.411,3.707-0.618,6.179-0.618
	c2.471,0,4.529,0.207,6.177,0.618l691.938,217.466C1603.176,642.907,1607.706,649.291,1607.706,658.765z"/>
</svg>
