<?xml version="1.0" encoding="utf-8"?>
<!-- Generator: Adobe Illustrator 16.0.3, SVG Export Plug-In . SVG Version: 6.00 Build 0)  -->
<!DOCTYPE svg PUBLIC "-//W3C//DTD SVG 1.1//EN" "http://www.w3.org/Graphics/SVG/1.1/DTD/svg11.dtd">
<svg version="1.1" id="Layer_1" xmlns="http://www.w3.org/2000/svg" xmlns:xlink="http://www.w3.org/1999/xlink" x="0px" y="0px"
	 width="1792px" height="1792px" viewBox="0 0 1792 1792" enable-background="new 0 0 1792 1792" xml:space="preserve">
<path fill="#10222B" d="M1368.392,975.962v393.659c0,14.216-5.194,26.518-15.583,36.906c-10.388,10.389-22.689,15.582-36.905,15.582
	h-314.928v-314.928H791.024v314.928H476.097c-14.216,0-26.518-5.193-36.906-15.582s-15.583-22.69-15.583-36.906V975.962
	c0-0.547,0.137-1.367,0.41-2.46c0.273-1.094,0.41-1.914,0.41-2.461L896,582.303l471.571,388.738
	C1368.118,972.135,1368.392,973.774,1368.392,975.962z M1551.279,919.373l-50.848,60.689c-4.374,4.921-10.115,7.928-17.223,9.021
	h-2.461c-7.107,0-12.849-1.913-17.223-5.741L896,510.132L328.474,983.343c-6.561,4.374-13.122,6.288-19.683,5.741
	c-7.107-1.094-12.848-4.101-17.223-9.021l-50.848-60.689c-4.374-5.468-6.287-11.892-5.741-19.272
	c0.547-7.381,3.554-13.259,9.021-17.633l589.669-491.254c17.495-14.216,38.272-21.323,62.329-21.323s44.834,7.107,62.329,21.323
	l200.11,167.305V398.595c0-7.654,2.461-13.942,7.381-18.863c4.921-4.92,11.209-7.381,18.863-7.381h157.464
	c7.654,0,13.942,2.461,18.863,7.381c4.92,4.921,7.381,11.209,7.381,18.863v334.61l179.606,149.263
	c5.469,4.374,8.475,10.252,9.021,17.633C1557.567,907.481,1555.652,913.905,1551.279,919.373z"/>
</svg>
