<?xml version="1.0" encoding="UTF-8" standalone="no"?>
<!DOCTYPE svg PUBLIC "-//W3C//DTD SVG 1.1//EN" "http://www.w3.org/Graphics/SVG/1.1/DTD/svg11.dtd">
<svg xmlns="http://www.w3.org/2000/svg" xmlns:xlink="http://www.w3.org/1999/xlink" version="1.1" width="567pt" height="709pt" viewBox="0 0 567 709">
<g enable-background="new">
<clipPath id="cp0">
<path transform="matrix(1,0,0,-1,0,709)" d="M 0 709 L 566.88 709 L 566.88 .04 L 0 .04 Z "/>
</clipPath>
<g clip-path="url(#cp0)">
<clipPath id="cp1">
<path transform="matrix(1,0,0,-1,0,709)" d="M 0 0 L 567 0 L 567 709 L 0 709 Z "/>
</clipPath>
<g clip-path="url(#cp1)">
<path transform="matrix(1,0,0,-1,0,709)" d="M 0 709 L 566.88 709 L 566.88 .04 L 0 .04 Z " fill="#ffffff"/>
</g>
</g>
<clipPath id="cp2">
<path transform="matrix(1,0,0,-1,0,709)" d="M 0 0 L 567 0 L 567 709 L 0 709 Z "/>
</clipPath>
<g clip-path="url(#cp2)">
<path transform="matrix(1,0,0,-1,0,709)" d="M 0 709 L 566.875 709 L 566.875 .375 L 0 .375 Z " fill="#ffffff"/>
<path transform="matrix(1,0,0,-1,0,709)" d="M 337.5836 608.0933 C 335.6773 608.0933 334.0523 607.9527 332.7086 607.6714 C 331.3648 607.3902 330.2711 606.9683 329.4273 606.4058 C 328.5836 605.8433 327.9664 605.1636 327.5758 604.3667 C 327.1851 603.5698 326.9898 602.6558 326.9898 601.6245 C 326.9898 599.8745 327.5445 598.4995 328.6539 597.4995 C 329.7633 596.4995 331.3023 595.9995 333.2711 595.9995 C 334.9273 595.9995 336.4507 596.4214 337.8414 597.2652 C 339.232 598.1089 340.646 599.3433 342.0836 600.9683 L 342.0836 608.0933 Z M 143.4436 608.0933 C 141.5374 608.0933 139.9124 607.9527 138.5686 607.6714 C 137.2249 607.3902 136.1311 606.9683 135.2874 606.4058 C 134.4436 605.8433 133.8264 605.1636 133.4358 604.3667 C 133.0452 603.5698 132.8499 602.6558 132.8499 601.6245 C 132.8499 599.8745 133.4045 598.4995 134.5139 597.4995 C 135.6233 596.4995 137.1624 595.9995 139.1311 595.9995 C 140.7874 595.9995 142.3108 596.4214 143.7014 597.2652 C 145.092 598.1089 146.5061 599.3433 147.9436 600.9683 L 147.9436 608.0933 Z M 484.9117 634.0151 C 486.0679 634.0151 487.0211 633.9761 487.7711 633.898 C 488.5211 633.8198 489.1226 633.7026 489.5758 633.5464 C 490.0288 633.3901 490.3492 633.1948 490.5367 632.9605 C 490.7242 632.7261 490.8179 632.4526 490.8179 632.1401 L 490.8179 608.5152 C 490.8179 606.3277 490.9586 604.6558 491.2398 603.4995 C 491.5211 602.3433 491.9507 601.3511 492.5289 600.523 C 493.107 599.6948 493.8414 599.0542 494.732 598.6011 C 495.6226 598.148 496.6617 597.9214 497.8492 597.9214 C 499.3492 597.9214 500.857 598.4683 502.3726 599.562 C 503.8882 600.6558 505.5054 602.2495 507.2242 604.3433 L 507.2242 632.1401 C 507.2242 632.4526 507.3101 632.7261 507.482 632.9605 C 507.6538 633.1948 507.9663 633.3901 508.4195 633.5464 C 508.8726 633.7026 509.4742 633.8198 510.2242 633.898 C 510.9742 633.9761 511.9273 634.0151 513.0836 634.0151 C 514.2398 634.0151 515.1929 633.9761 515.9429 633.898 C 516.6929 633.8198 517.2867 633.7026 517.7242 633.5464 C 518.1617 633.3901 518.4742 633.1948 518.6617 632.9605 C 518.8492 632.7261 518.9429 632.4526 518.9429 632.1401 L 518.9429 590.3277 C 518.9429 590.0152 518.8648 589.7417 518.7086 589.5073 C 518.5523 589.273 518.2788 589.0777 517.8882 588.9214 C 517.4976 588.7652 516.982 588.648 516.3414 588.5698 C 515.7007 588.4917 514.896 588.4527 513.9273 588.4527 C 512.8961 588.4527 512.0601 588.4917 511.4195 588.5698 C 510.7788 588.648 510.2711 588.7652 509.8961 588.9214 C 509.5211 589.0777 509.2554 589.273 509.0992 589.5073 C 508.9429 589.7417 508.8648 590.0152 508.8648 590.3277 L 508.8648 595.1558 C 506.5523 592.6558 504.2007 590.7808 501.8101 589.5308 C 499.4195 588.2808 496.9429 587.6558 494.3804 587.6558 C 491.5054 587.6558 489.0913 588.1245 487.1383 589.062 C 485.1851 589.9995 483.607 591.2808 482.4039 592.9058 C 481.2007 594.5308 480.3414 596.4136 479.8258 598.5542 C 479.3101 600.6948 479.0523 603.3589 479.0523 606.5464 L 479.0523 632.1401 C 479.0523 632.4526 479.1382 632.7261 479.3101 632.9605 C 479.482 633.1948 479.7945 633.3901 480.2476 633.5464 C 480.7007 633.7026 481.3101 633.8198 482.0758 633.898 C 482.8413 633.9761 483.7867 634.0151 484.9117 634.0151 Z M 272.1617 634.0151 C 273.3179 634.0151 274.271 633.9761 275.0211 633.898 C 275.771 633.8198 276.3726 633.7026 276.8257 633.5464 C 277.2789 633.3901 277.5992 633.1948 277.7867 632.9605 C 277.9742 632.7261 278.068 632.4526 278.068 632.1401 L 278.068 608.5152 C 278.068 606.3277 278.2086 604.6558 278.4898 603.4995 C 278.7711 602.3433 279.2007 601.3511 279.7789 600.523 C 280.357 599.6948 281.0914 599.0542 281.982 598.6011 C 282.8726 598.148 283.9117 597.9214 285.0992 597.9214 C 286.5992 597.9214 288.107 598.4683 289.6226 599.562 C 291.1382 600.6558 292.7554 602.2495 294.4742 604.3433 L 294.4742 632.1401 C 294.4742 632.4526 294.5601 632.7261 294.732 632.9605 C 294.9039 633.1948 295.2164 633.3901 295.6695 633.5464 C 296.1226 633.7026 296.7242 633.8198 297.4742 633.898 C 298.2242 633.9761 299.1773 634.0151 300.3336 634.0151 C 301.4898 634.0151 302.4429 633.9761 303.1929 633.898 C 303.9429 633.8198 304.5367 633.7026 304.9742 633.5464 C 305.4117 633.3901 305.7242 633.1948 305.9117 632.9605 C 306.0992 632.7261 306.1929 632.4526 306.1929 632.1401 L 306.1929 590.3277 C 306.1929 590.0152 306.1148 589.7417 305.9586 589.5073 C 305.8023 589.273 305.5289 589.0777 305.1383 588.9214 C 304.7476 588.7652 304.232 588.648 303.5914 588.5698 C 302.9508 588.4917 302.1461 588.4527 301.1773 588.4527 C 300.146 588.4527 299.3101 588.4917 298.6695 588.5698 C 298.0289 588.648 297.5211 588.7652 297.1461 588.9214 C 296.7711 589.0777 296.5055 589.273 296.3492 589.5073 C 296.1929 589.7417 296.1148 590.0152 296.1148 590.3277 L 296.1148 595.1558 C 293.8023 592.6558 291.4507 590.7808 289.0601 589.5308 C 286.6695 588.2808 284.1929 587.6558 281.6304 587.6558 C 278.7555 587.6558 276.3414 588.1245 274.3882 589.062 C 272.4351 589.9995 270.857 591.2808 269.6539 592.9058 C 268.4507 594.5308 267.5914 596.4136 267.0757 598.5542 C 266.5601 600.6948 266.3023 603.3589 266.3023 606.5464 L 266.3023 632.1401 C 266.3023 632.4526 266.3882 632.7261 266.5601 632.9605 C 266.732 633.1948 267.0445 633.3901 267.4976 633.5464 C 267.9507 633.7026 268.5601 633.8198 269.3258 633.898 C 270.0914 633.9761 271.0367 634.0151 272.1617 634.0151 Z M 222.1617 634.0151 C 223.5055 634.0151 224.568 633.9917 225.3492 633.9448 C 226.1305 633.898 226.7398 633.7808 227.1773 633.5933 C 227.6148 633.4058 227.943 633.1167 228.1617 632.7261 C 228.3804 632.3355 228.5992 631.7808 228.818 631.062 L 238.6617 603.0777 L 238.8023 603.0777 L 247.8023 631.6245 C 247.9898 632.437 248.232 632.9761 248.5289 633.2417 C 248.8258 633.5073 249.318 633.7026 250.0055 633.8276 C 250.6929 633.9526 251.8961 634.0151 253.6148 634.0151 C 254.9586 634.0151 256.0758 633.9526 256.9664 633.8276 C 257.857 633.7026 258.5133 633.4683 258.9351 633.1245 C 259.357 632.7808 259.568 632.3198 259.568 631.7417 C 259.568 631.1636 259.4429 630.4839 259.193 629.7026 L 245.2711 588.7339 L 240.2086 573.9214 C 239.9273 573.1402 239.1617 572.5777 237.9117 572.2339 C 236.6617 571.8902 234.8336 571.7183 232.4273 571.7183 C 231.1773 571.7183 230.1773 571.773 229.4273 571.8823 C 228.6773 571.9917 228.1148 572.1714 227.7398 572.4214 C 227.3648 572.6714 227.1617 572.9839 227.1305 573.3589 C 227.0992 573.7339 227.193 574.187 227.4117 574.7183 L 232.9898 588.7339 C 232.5836 588.9214 232.2164 589.2105 231.8883 589.6011 C 231.5601 589.9917 231.3179 590.4058 231.1617 590.8433 L 216.7711 629.2808 C 216.3648 630.3745 216.1617 631.2105 216.1617 631.7886 C 216.1617 632.3667 216.3492 632.8198 216.7242 633.148 C 217.0992 633.4761 217.732 633.7026 218.6227 633.8276 C 219.5133 633.9526 220.693 634.0151 222.1617 634.0151 Z M 106.178 634.0151 C 107.3342 634.0151 108.2873 633.9683 109.0373 633.8745 C 109.7873 633.7808 110.3889 633.648 110.842 633.4761 C 111.2952 633.3042 111.6155 633.1011 111.803 632.8667 C 111.9905 632.6323 112.0842 632.3589 112.0842 632.0464 L 112.0842 590.3277 C 112.0842 590.0152 111.9905 589.7417 111.803 589.5073 C 111.6155 589.273 111.2952 589.0777 110.842 588.9214 C 110.3889 588.7652 109.7873 588.648 109.0373 588.5698 C 108.2873 588.4917 107.3342 588.4527 106.178 588.4527 C 105.0217 588.4527 104.0686 588.4917 103.3186 588.5698 C 102.5686 588.648 101.967 588.7652 101.5139 588.9214 C 101.0608 589.0777 100.7405 589.273 100.553 589.5073 C 100.3655 589.7417 100.2717 590.0152 100.2717 590.3277 L 100.2717 632.0464 C 100.2717 632.3589 100.3655 632.6323 100.553 632.8667 C 100.7405 633.1011 101.0608 633.3042 101.5139 633.4761 C 101.967 633.648 102.5686 633.7808 103.3186 633.8745 C 104.0686 633.9683 105.0217 634.0151 106.178 634.0151 Z M 390.0211 634.812 C 392.8648 634.812 395.2632 634.3433 397.2164 633.4058 C 399.1695 632.4683 400.7476 631.1948 401.9508 629.5855 C 403.1539 627.9761 404.021 626.0933 404.5523 623.937 C 405.0836 621.7808 405.3492 619.187 405.3492 616.1558 L 405.3492 590.3277 C 405.3492 590.0152 405.2554 589.7417 405.0679 589.5073 C 404.8804 589.273 404.5679 589.0777 404.1304 588.9214 C 403.6929 588.7652 403.0914 588.648 402.3258 588.5698 C 401.5601 588.4917 400.6148 588.4527 399.4898 588.4527 C 398.3336 588.4527 397.3726 588.4917 396.607 588.5698 C 395.8414 588.648 395.2398 588.7652 394.8023 588.9214 C 394.3648 589.0777 394.0523 589.273 393.8648 589.5073 C 393.6773 589.7417 393.5835 590.0152 393.5836 590.3277 L 393.5836 614.187 C 393.5835 616.2183 393.4351 617.812 393.1383 618.9683 C 392.8414 620.1245 392.4117 621.1167 391.8492 621.9448 C 391.2867 622.773 390.5601 623.4136 389.6695 623.8667 C 388.7789 624.3198 387.7398 624.5464 386.5523 624.5464 C 385.0523 624.5464 383.5367 623.9995 382.0054 622.9058 C 380.4742 621.812 378.8804 620.2183 377.2242 618.1245 L 377.2242 590.3277 C 377.2242 590.0152 377.1304 589.7417 376.9429 589.5073 C 376.7554 589.273 376.4351 589.0777 375.982 588.9214 C 375.5289 588.7652 374.9273 588.648 374.1773 588.5698 C 373.4273 588.4917 372.4742 588.4527 371.3179 588.4527 C 370.1617 588.4527 369.2085 588.4917 368.4586 588.5698 C 367.7085 588.648 367.107 588.7652 366.6539 588.9214 C 366.2008 589.0777 365.8804 589.273 365.6929 589.5073 C 365.5054 589.7417 365.4117 590.0152 365.4117 590.3277 L 365.4117 632.1401 C 365.4117 632.4526 365.4898 632.7261 365.6461 632.9605 C 365.8023 633.1948 366.0835 633.3901 366.4898 633.5464 C 366.896 633.7026 367.4195 633.8198 368.0601 633.898 C 368.7007 633.9761 369.5054 634.0151 370.4742 634.0151 C 371.4742 634.0151 372.3023 633.9761 372.9586 633.898 C 373.6148 633.8198 374.1226 633.7026 374.482 633.5464 C 374.8414 633.3901 375.0992 633.1948 375.2554 632.9605 C 375.4117 632.7261 375.4898 632.4526 375.4898 632.1401 L 375.4898 627.312 C 377.8023 629.812 380.1539 631.687 382.5445 632.937 C 384.9351 634.187 387.4273 634.812 390.0211 634.812 Z M 335.1929 634.812 C 338.4742 634.812 341.2789 634.4917 343.607 633.8511 C 345.9351 633.2105 347.8492 632.2261 349.3492 630.898 C 350.8492 629.5698 351.9429 627.8589 352.6304 625.7651 C 353.3179 623.6714 353.6617 621.187 353.6617 618.312 L 353.6617 590.187 C 353.6617 589.7495 353.5054 589.4058 353.1929 589.1558 C 352.8804 588.9058 352.3882 588.7261 351.7164 588.6167 C 351.0445 588.5073 350.0523 588.4527 348.7398 588.4527 C 347.3335 588.4527 346.3101 588.5073 345.6695 588.6167 C 345.0289 588.7261 344.5758 588.9058 344.3101 589.1558 C 344.0445 589.4058 343.9117 589.7495 343.9117 590.187 L 343.9117 593.5152 C 342.1929 591.6714 340.232 590.2339 338.0289 589.2027 C 335.8258 588.1714 333.3804 587.6558 330.6929 587.6558 C 328.4742 587.6558 326.4351 587.9448 324.5758 588.523 C 322.7164 589.1011 321.107 589.9605 319.7476 591.1011 C 318.3883 592.2417 317.3336 593.6558 316.5836 595.3433 C 315.8336 597.0308 315.4586 598.9995 315.4586 601.2495 C 315.4586 603.687 315.9351 605.8042 316.8883 607.6011 C 317.8414 609.398 319.2633 610.8823 321.1539 612.0542 C 323.0445 613.2261 325.3961 614.0933 328.2086 614.6558 C 331.0211 615.2183 334.2867 615.4995 338.0054 615.4995 L 342.0836 615.4995 L 342.0836 618.0308 C 342.0836 619.3433 341.9508 620.4917 341.6851 621.4761 C 341.4195 622.4605 340.982 623.2808 340.3726 623.937 C 339.7632 624.5933 338.9507 625.0776 337.9351 625.3901 C 336.9195 625.7026 335.6617 625.8589 334.1617 625.8589 C 332.1929 625.8589 330.4351 625.6401 328.8883 625.2026 C 327.3414 624.7651 325.9742 624.2808 324.7867 623.7495 C 323.5992 623.2183 322.607 622.7339 321.8101 622.2964 C 321.0133 621.8589 320.3648 621.6401 319.8648 621.6401 C 319.5211 621.6401 319.2164 621.7495 318.9508 621.9683 C 318.6851 622.187 318.4664 622.4995 318.2945 622.9058 C 318.1226 623.312 317.9898 623.812 317.8961 624.4058 C 317.8023 624.9995 317.7554 625.6558 317.7554 626.3745 C 317.7554 627.3433 317.8336 628.1089 317.9898 628.6714 C 318.146 629.2339 318.4429 629.7417 318.8804 630.1948 C 319.3179 630.648 320.0836 631.148 321.1773 631.6948 C 322.271 632.2417 323.5523 632.7495 325.0211 633.2183 C 326.4898 633.687 328.0914 634.0698 329.8258 634.3667 C 331.5601 634.6636 333.3492 634.812 335.1929 634.812 Z M 195.8811 634.812 C 198.7248 634.812 201.1233 634.3433 203.0764 633.4058 C 205.0295 632.4683 206.6076 631.1948 207.8108 629.5855 C 209.0139 627.9761 209.8811 626.0933 210.4123 623.937 C 210.9436 621.7808 211.2092 619.187 211.2092 616.1558 L 211.2092 590.3277 C 211.2092 590.0152 211.1155 589.7417 210.928 589.5073 C 210.7405 589.273 210.428 589.0777 209.9905 588.9214 C 209.553 588.7652 208.9514 588.648 208.1858 588.5698 C 207.4201 588.4917 206.4748 588.4527 205.3498 588.4527 C 204.1936 588.4527 203.2327 588.4917 202.467 588.5698 C 201.7014 588.648 201.0998 588.7652 200.6623 588.9214 C 200.2248 589.0777 199.9123 589.273 199.7248 589.5073 C 199.5373 589.7417 199.4436 590.0152 199.4436 590.3277 L 199.4436 614.187 C 199.4436 616.2183 199.2951 617.812 198.9983 618.9683 C 198.7014 620.1245 198.2717 621.1167 197.7092 621.9448 C 197.1467 622.773 196.4202 623.4136 195.5295 623.8667 C 194.6389 624.3198 193.5998 624.5464 192.4123 624.5464 C 190.9123 624.5464 189.3967 623.9995 187.8655 622.9058 C 186.3342 621.812 184.7405 620.2183 183.0842 618.1245 L 183.0842 590.3277 C 183.0842 590.0152 182.9905 589.7417 182.803 589.5073 C 182.6155 589.273 182.2951 589.0777 181.842 588.9214 C 181.3889 588.7652 180.7873 588.648 180.0373 588.5698 C 179.2873 588.4917 178.3342 588.4527 177.178 588.4527 C 176.0217 588.4527 175.0686 588.4917 174.3186 588.5698 C 173.5686 588.648 172.967 588.7652 172.5139 588.9214 C 172.0608 589.0777 171.7405 589.273 171.553 589.5073 C 171.3655 589.7417 171.2717 590.0152 171.2717 590.3277 L 171.2717 632.1401 C 171.2717 632.4526 171.3498 632.7261 171.5061 632.9605 C 171.6623 633.1948 171.9436 633.3901 172.3498 633.5464 C 172.7561 633.7026 173.2795 633.8198 173.9201 633.898 C 174.5608 633.9761 175.3655 634.0151 176.3342 634.0151 C 177.3342 634.0151 178.1623 633.9761 178.8186 633.898 C 179.4748 633.8198 179.9826 633.7026 180.342 633.5464 C 180.7014 633.3901 180.9592 633.1948 181.1155 632.9605 C 181.2717 632.7261 181.3498 632.4526 181.3498 632.1401 L 181.3498 627.312 C 183.6623 629.812 186.0139 631.687 188.4045 632.937 C 190.7951 634.187 193.2873 634.812 195.8811 634.812 Z M 141.053 634.812 C 144.3342 634.812 147.1389 634.4917 149.467 633.8511 C 151.7952 633.2105 153.7092 632.2261 155.2092 630.898 C 156.7092 629.5698 157.803 627.8589 158.4905 625.7651 C 159.178 623.6714 159.5217 621.187 159.5217 618.312 L 159.5217 590.187 C 159.5217 589.7495 159.3655 589.4058 159.053 589.1558 C 158.7405 588.9058 158.2483 588.7261 157.5764 588.6167 C 156.9045 588.5073 155.9124 588.4527 154.5999 588.4527 C 153.1936 588.4527 152.1702 588.5073 151.5295 588.6167 C 150.8889 588.7261 150.4358 588.9058 150.1702 589.1558 C 149.9045 589.4058 149.7717 589.7495 149.7717 590.187 L 149.7717 593.5152 C 148.053 591.6714 146.092 590.2339 143.8889 589.2027 C 141.6858 588.1714 139.2405 587.6558 136.553 587.6558 C 134.3342 587.6558 132.2952 587.9448 130.4358 588.523 C 128.5764 589.1011 126.967 589.9605 125.6077 591.1011 C 124.2483 592.2417 123.1936 593.6558 122.4436 595.3433 C 121.6936 597.0308 121.3186 598.9995 121.3186 601.2495 C 121.3186 603.687 121.7952 605.8042 122.7483 607.6011 C 123.7014 609.398 125.1233 610.8823 127.0139 612.0542 C 128.9045 613.2261 131.2561 614.0933 134.0686 614.6558 C 136.8811 615.2183 140.1467 615.4995 143.8655 615.4995 L 147.9436 615.4995 L 147.9436 618.0308 C 147.9436 619.3433 147.8108 620.4917 147.5452 621.4761 C 147.2795 622.4605 146.842 623.2808 146.2327 623.937 C 145.6233 624.5933 144.8108 625.0776 143.7952 625.3901 C 142.7795 625.7026 141.5217 625.8589 140.0217 625.8589 C 138.053 625.8589 136.2952 625.6401 134.7483 625.2026 C 133.2014 624.7651 131.8342 624.2808 130.6467 623.7495 C 129.4592 623.2183 128.467 622.7339 127.6702 622.2964 C 126.8733 621.8589 126.2249 621.6401 125.7249 621.6401 C 125.3811 621.6401 125.0764 621.7495 124.8108 621.9683 C 124.5452 622.187 124.3264 622.4995 124.1545 622.9058 C 123.9827 623.312 123.8499 623.812 123.7561 624.4058 C 123.6624 624.9995 123.6155 625.6558 123.6155 626.3745 C 123.6155 627.3433 123.6936 628.1089 123.8499 628.6714 C 124.0061 629.2339 124.303 629.7417 124.7405 630.1948 C 125.178 630.648 125.9436 631.148 127.0374 631.6948 C 128.1311 632.2417 129.4124 632.7495 130.8811 633.2183 C 132.3499 633.687 133.9514 634.0698 135.6858 634.3667 C 137.4202 634.6636 139.2092 634.812 141.053 634.812 Z M 49.2561 649.3901 L 92.0061 649.3901 C 92.28735 649.3901 92.54516 649.3042 92.77954 649.1323 C 93.01391 648.9605 93.20923 648.6792 93.36547 648.2886 C 93.52173 647.898 93.63891 647.3745 93.71704 646.7183 C 93.79517 646.062 93.83422 645.2651 93.83423 644.3276 C 93.83422 643.4214 93.79517 642.648 93.71704 642.0073 C 93.63891 641.3667 93.52173 640.8511 93.36547 640.4605 C 93.20923 640.0698 93.01391 639.7808 92.77954 639.5933 C 92.54516 639.4058 92.28735 639.312 92.0061 639.312 L 76.8186 639.312 L 76.8186 590.4214 C 76.8186 590.1089 76.71704 589.8277 76.51392 589.5777 C 76.31079 589.3277 75.97485 589.1245 75.5061 588.9683 C 75.03735 588.812 74.40454 588.687 73.60767 588.5933 C 72.81079 588.4995 71.8186 588.4527 70.6311 588.4527 C 69.4436 588.4527 68.45141 588.4995 67.65454 588.5933 C 66.85767 588.687 66.22485 588.812 65.7561 588.9683 C 65.28735 589.1245 64.95142 589.3277 64.74829 589.5777 C 64.54517 589.8277 64.4436 590.1089 64.4436 590.4214 L 64.4436 639.312 L 49.2561 639.312 C 48.9436 639.312 48.67798 639.4058 48.45923 639.5933 C 48.24048 639.7808 48.05298 640.0698 47.89673 640.4605 C 47.74048 640.8511 47.62329 641.3667 47.54516 642.0073 C 47.46704 642.648 47.42798 643.4214 47.42798 644.3276 C 47.42798 645.2651 47.46704 646.062 47.54516 646.7183 C 47.62329 647.3745 47.74048 647.898 47.89673 648.2886 C 48.05298 648.6792 48.24048 648.9605 48.45923 649.1323 C 48.67798 649.3042 48.9436 649.3901 49.2561 649.3901 Z M 445.5523 649.6714 C 446.771 649.6714 447.771 649.6245 448.5523 649.5308 C 449.3336 649.437 449.9585 649.312 450.4273 649.1558 C 450.896 648.9995 451.232 648.7964 451.4351 648.5464 C 451.6382 648.2964 451.7398 648.0151 451.7398 647.7026 L 451.7398 598.9058 L 470.8179 598.9058 C 471.1304 598.9058 471.4038 598.8198 471.6382 598.648 C 471.8726 598.4761 472.0679 598.1948 472.2242 597.8042 C 472.3804 597.4136 472.4976 596.898 472.5757 596.2573 C 472.6538 595.6167 472.6929 594.8277 472.6929 593.8902 C 472.6929 592.9527 472.6538 592.1636 472.5757 591.523 C 472.4976 590.8823 472.3804 590.3511 472.2242 589.9292 C 472.0679 589.5073 471.8726 589.2027 471.6382 589.0152 C 471.4038 588.8277 471.1304 588.7339 470.8179 588.7339 L 443.021 588.7339 C 441.9898 588.7339 441.1226 589.0386 440.4195 589.648 C 439.7163 590.2573 439.3648 591.2495 439.3648 592.6245 L 439.3648 647.7026 C 439.3648 648.0151 439.4663 648.2964 439.6695 648.5464 C 439.8726 648.7964 440.2085 648.9995 440.6773 649.1558 C 441.146 649.312 441.7788 649.437 442.5757 649.5308 C 443.3726 649.6245 444.3648 649.6714 445.5523 649.6714 Z M 106.2248 652.3901 C 108.8499 652.3901 110.6311 651.9448 111.5686 651.0542 C 112.5061 650.1636 112.9749 648.5776 112.9749 646.2964 C 112.9749 643.9214 112.4905 642.2808 111.5217 641.3745 C 110.553 640.4683 108.7561 640.0151 106.1311 640.0151 C 103.4749 640.0151 101.6858 640.4526 100.7639 641.3276 C 99.84204 642.2026 99.3811 643.7808 99.3811 646.062 C 99.3811 648.437 99.85767 650.0855 100.8108 651.0073 C 101.7639 651.9292 103.5686 652.3901 106.2248 652.3901 Z " fill="#ed7d31" fill-rule="evenodd"/>
<path transform="matrix(1,0,0,-1,0,709)" d="M 106.1669 634.515 L 107.7711 634.4799 L 109.0785 634.3728 L 110.1337 634.1977 L 111.6403 633.6447 C 112.4794 632.6774 112.4985 632.6221 112.5076 632.5648 L 112.578 632.1254 L 112.5842 590.3277 L 112.2404 589.2651 L 111.0489 588.4662 L 109.1089 588.075 L 107.7943 587.9831 L 106.1872 587.9527 L 104.5867 587.982 L 103.2843 588.071 L 102.2334 588.2215 L 100.7269 588.7299 C 99.87655 589.6967 99.85749 589.7519 99.84833 589.8092 L 99.77801 590.2487 L 99.77173 632.0464 L 100.1156 633.109 L 101.2958 633.926 L 103.2359 634.3676 L 104.5548 634.4783 Z M 106.1891 633.5153 L 104.6371 633.4817 L 103.4013 633.3814 L 101.6937 633.0076 L 100.7717 632.0067 L 100.7717 590.3674 L 102.3764 589.2112 L 104.6052 588.9819 L 106.1687 588.9526 L 107.7257 588.9808 L 108.9658 589.0647 L 110.6746 589.3945 L 111.5842 632.0067 L 110.6613 633.0081 L 108.9962 633.3762 L 107.7489 633.4801 Z " fill="#ed7d31" fill-rule="evenodd"/>
<path transform="matrix(1,0,0,-1,0,709)" d="M 513.0743 634.5151 L 514.6748 634.4858 L 515.9773 634.3968 L 517.0227 634.2463 L 518.4989 633.7355 C 519.3381 632.7711 519.3572 632.7159 519.3663 632.6586 L 519.4366 632.2191 L 519.4429 590.3277 L 519.1625 589.2978 L 518.1222 588.4795 L 516.4247 588.0768 L 515.2978 587.9836 L 513.9383 587.9528 L 512.5165 587.9821 L 511.3799 588.0714 L 509.7481 588.4438 L 508.7424 589.157 L 508.3692 590.2616 L 508.3659 593.9419 L 505.6944 591.4968 L 503.89 590.1812 L 502.0644 589.1003 L 500.2075 588.2551 L 498.3113 587.6481 L 496.3784 587.2815 L 494.4111 587.1567 L 492.2894 587.2441 L 490.3448 587.5121 L 488.566 587.9623 L 486.9539 588.5972 L 485.5026 589.3916 L 484.199 590.3194 L 483.0378 591.3837 L 482.0215 592.5836 L 481.1489 593.8971 L 480.4134 595.306 L 479.8122 596.8125 L 479.3455 598.4151 L 478.997 600.1604 L 478.7497 602.0946 L 478.6018 604.2194 L 478.5524 606.5359 L 478.5523 632.1401 L 478.8643 633.1868 L 480.039 634.0008 L 482.0054 634.393 L 483.3248 634.4847 L 484.9023 634.5151 L 486.503 634.4858 L 487.8054 634.3968 L 488.8562 634.2463 L 490.3627 633.7379 C 491.2131 632.7711 491.2322 632.7159 491.2413 632.6586 L 491.3117 632.2191 L 491.3179 608.5152 L 491.3442 606.9797 L 491.4226 605.6499 L 491.552 604.52 L 492.2328 602.0901 L 492.9391 600.8143 L 493.8444 599.8012 L 494.9583 599.0515 L 496.2892 598.5827 L 497.8519 598.4237 L 498.8866 598.5179 L 499.9352 598.8035 L 501.0311 599.2997 L 502.1054 599.9846 L 503.2182 600.8683 L 504.3832 601.9451 L 505.5927 603.2122 L 506.7242 604.5286 L 506.7242 632.1401 L 507.0362 633.1868 L 508.2109 634.0008 L 510.1527 634.3928 L 511.4672 634.4847 Z M 484.9211 633.5152 L 483.3931 633.487 L 482.1461 633.4029 L 480.4156 633.0733 L 479.5522 606.5569 L 479.5995 604.2884 L 479.7417 602.2208 L 479.9778 600.3552 L 480.306 598.6934 L 480.7416 597.1817 L 481.3006 595.7673 L 481.983 594.4487 L 482.7862 593.228 L 483.7152 592.1193 L 484.7806 591.1328 L 485.9848 590.2676 L 487.3226 589.5268 L 488.813 588.9313 L 490.4825 588.5026 L 492.3318 588.2432 L 494.3497 588.1548 L 496.194 588.2644 L 498.0081 588.601 L 499.7946 589.1658 L 501.5559 589.9613 L 503.3015 590.9897 L 505.0392 592.2522 L 506.7679 593.7499 L 508.5096 595.5077 L 509.3604 590.3937 L 510.0939 589.3832 L 511.4591 589.0683 L 512.5374 588.9818 L 513.9163 588.9525 L 515.217 588.9803 L 516.2581 589.0629 L 517.6973 589.3861 L 518.4429 632.1005 L 516.8788 633.2567 L 514.6563 633.4859 L 513.0928 633.5152 L 511.5359 633.487 L 510.2957 633.4031 L 508.5879 633.0735 L 507.7242 604.3433 L 506.3156 602.5213 L 505.0613 601.2102 L 503.8385 600.0839 L 502.6398 599.1394 L 501.4436 598.3888 L 500.3113 597.8761 L 499.1071 597.5415 L 497.8945 597.4235 L 496.1286 597.5939 L 494.5659 598.1295 L 493.2341 599.0066 L 492.156 600.1898 L 491.3356 601.646 L 490.7487 603.4055 L 490.5584 604.4068 L 490.4243 605.5914 L 490.3444 606.9627 L 490.3179 608.5152 L 490.3179 632.1005 L 488.7132 633.2566 L 486.4845 633.4859 Z " fill="#ed7d31" fill-rule="evenodd"/>
<path transform="matrix(1,0,0,-1,0,709)" d="M 300.3243 634.5151 L 301.9249 634.4858 L 303.2273 634.3968 L 304.2727 634.2463 L 305.7489 633.7355 C 306.5881 632.7711 306.6072 632.7159 306.6163 632.6586 L 306.6867 632.2192 L 306.6929 590.3277 L 306.4126 589.2978 L 305.3722 588.4795 L 303.6747 588.0768 L 302.5478 587.9836 L 301.1883 587.9528 L 299.7665 587.9821 L 298.6299 588.0714 L 296.9981 588.4438 L 295.9924 589.157 L 295.6192 590.2616 L 295.6159 593.9419 L 292.9444 591.4968 L 291.14 590.1812 L 289.3144 589.1003 L 287.4575 588.2551 L 285.5613 587.6481 L 283.6284 587.2815 L 281.6611 587.1567 L 279.5394 587.2441 L 277.5948 587.5121 L 275.816 587.9623 L 274.2039 588.5972 L 272.7526 589.3916 L 271.449 590.3194 L 270.2878 591.3837 L 269.2715 592.5836 L 268.3989 593.8971 L 267.6634 595.306 L 267.0622 596.8125 L 266.5955 598.4151 L 266.247 600.1604 L 265.9997 602.0946 L 265.8519 604.2194 L 265.8024 606.5359 L 265.8023 632.1401 L 266.1143 633.1868 L 267.289 634.0008 L 269.2555 634.393 L 270.5748 634.4847 L 272.1523 634.5151 L 273.753 634.4858 L 275.0554 634.3968 L 276.1063 634.2463 L 277.6127 633.7379 C 278.4632 632.7711 278.4822 632.7159 278.4914 632.6586 L 278.5617 632.2191 L 278.568 608.5152 L 278.5943 606.9797 L 278.6726 605.6499 L 278.802 604.52 L 279.4827 602.0902 L 280.1892 600.8142 L 281.0944 599.8012 L 282.2083 599.0515 L 283.5392 598.5827 L 285.1019 598.4237 L 286.1366 598.5179 L 287.1851 598.8035 L 288.2811 599.2997 L 289.3554 599.9846 L 290.4682 600.8683 L 291.6332 601.9451 L 292.8427 603.2122 L 293.9742 604.5286 L 293.9742 632.1401 L 294.2862 633.1868 L 295.4608 634.0008 L 297.4027 634.3928 L 298.7172 634.4847 Z M 272.1711 633.5152 L 270.6431 633.487 L 269.3961 633.4029 L 267.6656 633.0733 L 266.8022 606.5569 L 266.8495 604.2884 L 266.9917 602.2208 L 267.2278 600.3552 L 267.556 598.6934 L 267.9916 597.1817 L 268.5506 595.7673 L 269.233 594.4487 L 270.0362 593.228 L 270.9653 592.1193 L 272.0306 591.1328 L 273.2348 590.2676 L 274.5726 589.5268 L 276.063 588.9313 L 277.7325 588.5026 L 279.5819 588.2432 L 281.5998 588.1548 L 283.444 588.2644 L 285.2581 588.601 L 287.0446 589.1658 L 288.8058 589.9613 L 290.5515 590.9897 L 292.2891 592.2522 L 294.0179 593.7499 L 295.7596 595.5077 L 296.6104 590.3937 L 297.3439 589.3832 L 298.7091 589.0683 L 299.7874 588.9818 L 301.1663 588.9525 L 302.467 588.9803 L 303.5081 589.0629 L 304.9473 589.386 L 305.6929 632.1004 L 304.1288 633.2567 L 301.9063 633.4859 L 300.3428 633.5152 L 298.7858 633.487 L 297.5457 633.4031 L 295.8379 633.0735 L 294.9742 604.3433 L 293.5656 602.5213 L 292.3113 601.2102 L 291.0885 600.0839 L 289.8898 599.1394 L 288.6936 598.3888 L 287.5613 597.8761 L 286.357 597.5415 L 285.1445 597.4235 L 283.3787 597.5939 L 281.8159 598.1295 L 280.4841 599.0066 L 279.4061 600.1898 L 278.5856 601.646 L 277.9988 603.4055 L 277.8085 604.4068 L 277.6743 605.5914 L 277.5944 606.9627 L 277.568 608.5152 L 277.568 632.1005 L 275.9632 633.2566 L 273.7345 633.4859 Z " fill="#ed7d31" fill-rule="evenodd"/>
<path transform="matrix(1,0,0,-1,0,709)" d="M 253.6099 634.5151 L 255.4732 634.4681 L 257.0129 634.3255 L 258.2397 634.0452 C 259.2322 633.5326 259.2856 633.4878 259.3282 633.4336 L 259.8028 632.8301 C 260.0679 631.7922 260.0705 631.742 260.0655 631.6923 L 259.9718 630.7489 L 259.6773 629.5783 L 245.7445 588.573 L 240.6817 573.7597 L 239.7692 572.5525 L 238.0781 571.7624 L 236.9712 571.5196 L 235.6664 571.3512 L 234.1562 571.2516 L 232.4368 571.2184 L 230.7205 571.2597 L 229.3689 571.3858 L 228.3354 571.6108 L 226.9576 572.4849 L 226.6787 574.0176 L 232.37 588.5285 L 231.0526 589.9155 L 216.3028 629.1055 L 215.8328 630.5923 L 215.6633 631.7492 C 215.8237 632.7246 215.8531 632.7939 215.8966 632.8542 L 216.3184 633.4401 L 217.8644 634.1953 L 219.2884 634.4065 L 221.0956 634.5031 L 222.1561 634.5151 L 223.9741 634.4975 L 225.3733 634.4443 L 226.4508 634.3183 L 228.0158 633.6603 L 228.9436 632.2271 L 229.2908 631.2245 L 238.7099 604.4474 L 247.3255 631.7749 L 247.6566 632.8143 L 248.8685 634.0191 L 249.8744 634.3102 L 251.3871 634.467 L 252.4049 634.5031 Z M 222.1673 633.5152 L 221.133 633.5038 L 219.4013 633.4129 L 218.1416 633.2345 L 217.0793 632.7854 L 216.6649 631.7611 L 216.9771 630.216 L 231.6146 591.0552 L 232.2701 589.927 C 233.4589 589.0322 233.5442 588.7747 233.4544 588.549 L 227.8883 574.567 L 227.6368 573.4234 L 229.4858 572.3789 L 230.7591 572.2589 L 232.4179 572.2182 L 234.091 572.2494 L 235.5398 572.3432 L 236.7604 572.4971 L 238.5493 572.9891 L 239.7498 574.125 L 244.7977 588.8948 L 258.7087 629.827 L 258.9804 630.8858 L 258.9434 632.3052 L 256.9199 633.3298 L 255.4479 633.4684 L 253.6198 633.5152 L 252.44 633.5037 L 250.6841 633.4141 L 249.3157 633.1223 L 248.4359 632.0521 L 239.2792 602.9273 C 238.4495 602.5777 238.2604 602.7116 238.19 602.9117 L 228.3451 630.8996 L 227.7337 632.4604 L 226.292 633.3302 L 224.6958 633.4758 L 223.1145 633.5108 Z " fill="#ed7d31" fill-rule="evenodd"/>
<path transform="matrix(1,0,0,-1,0,709)" d="M 389.9907 635.3111 L 392.0918 635.2237 L 394.022 634.9556 L 395.7921 634.5054 L 397.401 633.8704 L 398.8517 633.0779 L 400.1547 632.155 L 401.3155 631.0985 L 402.3317 629.9093 L 403.206 628.6046 L 403.9463 627.1985 L 404.5549 625.6892 L 405.0319 624.0784 L 405.3908 622.3383 L 405.6456 620.4408 L 405.798 618.3839 L 405.8491 616.1671 L 405.8492 590.3277 L 405.5054 589.2651 L 404.3427 588.4687 L 402.3965 588.0749 L 401.0767 587.9831 L 399.4992 587.9527 L 397.8927 587.982 L 396.5732 588.071 L 395.5109 588.2213 L 394.0276 588.7323 C 393.1884 589.6967 393.1693 589.7519 393.1601 589.8092 L 393.0899 590.2487 L 393.0836 614.187 L 393.0558 615.6188 L 392.9733 616.8732 L 392.8369 617.957 L 392.1338 620.3779 L 391.4367 621.6568 L 390.549 622.6682 L 389.4427 623.4165 L 388.1123 623.8851 L 386.5496 624.0441 L 385.5131 623.9499 L 384.4596 623.664 L 383.3561 623.1676 L 382.2709 622.4821 L 381.1547 621.599 L 380.0023 620.5241 L 378.8196 619.2593 L 377.7242 617.9436 L 377.7242 590.3277 L 377.3804 589.2651 L 376.1889 588.4662 L 374.2488 588.075 L 372.9343 587.9831 L 371.3272 587.9527 L 369.7266 587.982 L 368.4242 588.071 L 367.3734 588.2215 L 365.8669 588.7299 C 365.0165 589.6967 364.9975 589.7519 364.9883 589.8092 L 364.918 590.2487 L 364.9117 632.1401 L 365.1921 633.17 L 366.2622 633.9916 L 367.9774 634.3911 L 369.1037 634.4842 L 370.4632 634.515 L 371.8559 634.4857 L 372.9979 634.3964 L 374.6324 634.0233 C 375.6542 633.2672 375.686 633.2207 375.7094 633.17 L 375.8852 632.7891 L 375.9887 628.526 L 378.6602 630.971 L 380.4646 632.2866 L 382.2902 633.3675 L 384.1503 634.2128 L 386.0556 634.8199 L 388.0032 635.1864 Z M 390.0514 634.3129 L 388.1863 634.2033 L 386.3576 633.8666 L 384.5627 633.3018 L 382.7988 632.5065 L 381.0531 631.4781 L 379.3154 630.2156 L 377.5867 628.7179 L 375.845 626.9601 L 374.9942 632.074 L 374.279 633.0866 L 372.9192 633.3995 L 371.8346 633.486 L 370.4852 633.5153 L 369.1845 633.4875 L 368.1429 633.4049 L 366.6758 633.0799 L 365.9117 590.3673 L 367.5164 589.2112 L 369.7451 588.9819 L 371.3087 588.9526 L 372.8656 588.9808 L 374.1058 589.0647 L 375.8146 589.3945 L 376.7242 618.1245 L 378.0896 619.9428 L 379.321 621.2562 L 380.5358 622.3845 L 381.7399 623.3295 L 382.9458 624.0795 L 384.0854 624.5922 L 385.2934 624.9264 L 386.5071 625.0444 L 388.2729 624.8739 L 389.8356 624.3383 L 391.1625 623.4606 L 392.225 622.2747 L 393.0324 620.8189 L 393.6281 619.0688 L 393.9711 616.9384 L 394.0556 615.6381 L 394.0836 614.187 L 394.0836 590.3673 L 395.6523 589.2113 L 397.9111 588.9819 L 399.4804 588.9526 L 401.0083 588.9808 L 402.255 589.0648 L 403.9593 589.3934 L 404.8493 616.1444 L 404.8007 618.3104 L 404.6544 620.3083 L 404.4111 622.1373 L 404.0727 623.7957 L 403.6268 625.3167 L 403.0606 626.7342 L 402.3741 628.0497 L 401.5698 629.2616 L 400.6407 630.3605 L 399.575 631.3402 L 398.3702 632.2014 L 397.0318 632.9411 L 395.5439 633.5367 L 393.8833 633.9653 L 392.0489 634.2246 Z " fill="#ed7d31" fill-rule="evenodd"/>
<path transform="matrix(1,0,0,-1,0,709)" d="M 195.8507 635.3111 L 197.9518 635.2237 L 199.8821 634.9556 L 201.6522 634.5054 L 203.261 633.8704 L 204.7117 633.0779 L 206.0147 632.155 L 207.1755 631.0985 L 208.1917 629.9093 L 209.0661 628.6046 L 209.8063 627.1985 L 210.4149 625.6892 L 210.8919 624.0784 L 211.2508 622.3383 L 211.5056 620.4408 L 211.658 618.3839 L 211.7091 616.1671 L 211.7092 590.3277 L 211.3654 589.2651 L 210.2027 588.4687 L 208.2565 588.0749 L 206.9367 587.9831 L 205.3593 587.9527 L 203.7527 587.982 L 202.4332 588.071 L 201.3709 588.2213 L 199.8876 588.7323 C 199.0484 589.6967 199.0293 589.7519 199.0202 589.8092 L 198.9499 590.2487 L 198.9436 614.187 L 198.9159 615.6188 L 198.8333 616.8732 L 198.697 617.957 L 197.9939 620.3778 L 197.2968 621.6568 L 196.409 622.6682 L 195.3027 623.4165 L 193.9724 623.8851 L 192.4096 624.0441 L 191.3732 623.9499 L 190.3197 623.664 L 189.2161 623.1676 L 188.131 622.4821 L 187.0147 621.599 L 185.8623 620.5241 L 184.6797 619.2593 L 183.5842 617.9436 L 183.5842 590.3277 L 183.2404 589.2651 L 182.0489 588.4662 L 180.1089 588.075 L 178.7943 587.9831 L 177.1872 587.9527 L 175.5867 587.982 L 174.2843 588.071 L 173.2334 588.2215 L 171.7269 588.7299 C 170.8766 589.6967 170.8575 589.7519 170.8483 589.8092 L 170.778 590.2487 L 170.7717 632.1401 L 171.0521 633.17 L 172.1222 633.9916 L 173.8374 634.3911 L 174.9637 634.4842 L 176.3232 634.515 L 177.716 634.4857 L 178.858 634.3964 L 180.4924 634.0232 C 181.5143 633.2672 181.546 633.2207 181.5695 633.17 L 181.7452 632.7891 L 181.8488 628.5259 L 184.5203 630.971 L 186.3246 632.2866 L 188.1502 633.3675 L 190.0103 634.2128 L 191.9157 634.8199 L 193.8633 635.1864 Z M 195.9115 634.3129 L 194.0464 634.2033 L 192.2176 633.8666 L 190.4228 633.3018 L 188.6588 632.5065 L 186.9131 631.4781 L 185.1755 630.2156 L 183.4467 628.7179 L 181.705 626.9601 L 180.8542 632.0741 L 180.1391 633.0866 L 178.7793 633.3995 L 177.6946 633.486 L 176.3452 633.5153 L 175.0445 633.4875 L 174.0029 633.4049 L 172.5358 633.0799 L 171.7717 590.3674 L 173.3764 589.2112 L 175.6052 588.9819 L 177.1687 588.9526 L 178.7257 588.9808 L 179.9658 589.0647 L 181.6746 589.3945 L 182.5842 618.1245 L 183.9497 619.9428 L 185.1811 621.2562 L 186.3959 622.3845 L 187.6 623.3295 L 188.8058 624.0795 L 189.9455 624.5922 L 191.1535 624.9264 L 192.3671 625.0444 L 194.1329 624.8739 L 195.6956 624.3383 L 197.0225 623.4606 L 198.085 622.2747 L 198.8924 620.8189 L 199.4881 619.0688 L 199.8312 616.9384 L 199.9157 615.6381 L 199.9436 614.187 L 199.9436 590.3675 L 201.5124 589.2113 L 203.7712 588.9819 L 205.3404 588.9526 L 206.8684 588.9808 L 208.1151 589.0648 L 209.8193 589.3934 L 210.7093 616.1444 L 210.6608 618.3104 L 210.5144 620.3083 L 210.2712 622.1373 L 209.9327 623.7957 L 209.4869 625.3167 L 208.9207 626.7342 L 208.2342 628.0497 L 207.4298 629.2616 L 206.5007 630.3605 L 205.435 631.3402 L 204.2302 632.2014 L 202.8918 632.9411 L 201.404 633.5367 L 199.7434 633.9653 L 197.909 634.2246 Z " fill="#ed7d31" fill-rule="evenodd"/>
<path transform="matrix(1,0,0,-1,0,709)" d="M 335.1725 635.3116 L 337.5772 635.2518 L 339.7984 635.0701 L 341.8453 634.766 L 343.7186 634.3385 L 345.4307 633.7814 L 346.992 633.0891 L 348.401 632.26 L 349.6554 631.2932 L 350.7547 630.1804 L 351.6964 628.9161 L 352.4769 627.5044 L 353.0955 625.9488 L 353.5638 624.2539 L 353.8959 622.4202 L 354.0947 620.4447 L 354.1615 618.3275 L 354.1617 590.187 L 353.5854 588.846 L 351.8369 588.1315 L 350.5057 587.9951 L 348.7454 587.9527 L 346.8992 587.994 L 345.6051 588.1209 C 344.6762 588.3621 344.6328 588.3803 344.5926 588.4044 C 343.5567 589.3812 343.5302 589.4476 343.5184 589.5173 L 343.4188 590.1032 L 343.4117 592.3258 L 341.4666 590.6657 L 339.9115 589.6351 L 338.2626 588.7606 L 336.5163 588.0614 L 334.673 587.5598 L 332.7394 587.2583 L 330.7175 587.1564 L 329.046 587.2103 L 327.4479 587.3753 L 325.9148 587.6516 L 324.4474 588.0397 L 323.0584 588.539 L 321.7608 589.1489 L 320.5565 589.8698 L 319.4469 590.7016 L 318.4424 591.6439 L 317.5543 592.6954 L 316.7859 593.8535 L 316.1382 595.116 L 315.623 596.4868 L 315.2544 597.9656 L 315.0336 599.5464 L 314.959 601.228 L 315.0486 603.0428 L 315.3225 604.7458 L 315.7829 606.3337 L 316.4313 607.8041 L 317.2666 609.1545 L 318.2857 610.3825 L 319.4865 611.4858 L 320.8658 612.4629 L 322.4186 613.3148 L 324.1412 614.0442 L 326.0329 614.6529 L 328.0934 615.1423 L 330.32 615.518 L 332.7117 615.7855 L 335.2702 615.9458 L 337.9957 615.9994 L 341.5836 615.9995 L 341.5836 618.0308 L 341.4847 619.8495 L 341.2025 621.3375 L 340.7142 622.5906 L 340.0052 623.5908 L 337.7726 624.9155 L 336.1496 625.2482 L 334.1481 625.3591 L 331.3961 625.1957 L 328.9856 624.7122 L 326.8535 624.0345 L 324.9714 623.2849 L 323.3631 622.5346 L 322.0392 621.8519 L 320.9329 621.3489 C 319.9001 621.1379 319.8402 621.1372 319.7817 621.1471 L 319.2953 621.2292 L 318.218 622.0298 L 317.5921 623.4261 L 317.2937 625.2874 L 317.2557 626.3575 L 317.3146 627.6978 L 317.4974 628.7583 C 317.8856 629.7078 317.9068 629.7443 317.9324 629.7777 L 318.9367 630.9161 L 320.1601 631.7215 L 322.7556 632.9428 L 324.8537 633.6894 L 327.1902 634.3388 L 329.7259 634.8566 L 332.4057 635.1967 Z M 335.2134 634.3124 L 332.531 634.2046 L 329.9256 633.8768 L 327.4574 633.3751 L 325.1884 632.7471 L 323.1615 632.0289 L 321.4111 631.2529 L 320.0734 630.5028 L 318.7654 629.2209 L 318.3135 627.6528 L 318.2551 626.3916 L 318.3857 624.5072 L 318.7546 623.1062 L 319.8595 622.1481 L 321.5811 622.7409 L 322.9408 623.441 L 324.602 624.2142 L 326.5519 624.988 L 328.7909 625.6931 L 331.3375 626.194 L 334.1752 626.3587 L 335.2856 626.3276 L 336.3106 626.2352 L 338.0583 625.8747 L 339.506 625.2508 L 340.6855 624.327 L 341.5657 623.1188 L 342.151 621.6576 L 342.4832 619.9034 L 342.5836 618.0308 L 342.5836 615.4995 L 338.0152 614.9996 L 335.3325 614.9478 L 332.8226 614.7917 L 330.4859 614.5318 L 328.3238 614.1692 L 326.3383 613.7006 L 324.5299 613.1228 L 322.898 612.4372 L 321.4419 611.6455 L 320.1611 610.7476 L 319.0533 609.7416 L 318.1154 608.6258 L 317.3452 607.3981 L 316.7427 606.053 L 316.3095 604.5853 L 316.0473 602.9924 L 315.9581 601.271 L 316.0242 599.6831 L 316.2252 598.2053 L 316.5598 596.8365 L 317.0289 595.5705 L 317.6205 594.4044 L 318.3199 593.3388 L 320.0483 591.5006 L 321.0716 590.7269 L 322.1876 590.0533 L 323.3978 589.4796 L 324.7041 589.0062 L 326.0931 588.6356 L 327.5513 588.3699 L 329.0792 588.2097 L 330.6684 588.1552 L 332.5869 588.2466 L 334.4121 588.5252 L 336.146 588.9904 L 337.7952 589.6447 L 339.3602 590.4694 L 340.8373 591.4428 L 342.2274 592.5658 L 343.5619 593.8724 L 344.4117 590.2292 L 345.734 589.1125 L 346.9358 588.9933 L 348.7343 588.9526 L 350.431 588.9923 L 351.5959 589.102 L 352.8652 589.5476 L 353.1619 618.2966 L 353.0997 620.3454 L 352.9118 622.243 L 352.5994 623.9892 L 352.1654 625.5815 L 351.6004 627.023 L 350.8926 628.3212 L 350.0413 629.4797 L 349.043 630.5027 L 347.8921 631.3992 L 346.5853 632.1756 L 345.1202 632.8309 L 343.4954 633.3637 L 341.6978 633.777 L 339.7164 634.0735 L 337.5519 634.2521 Z M 337.5836 608.5933 L 342.0836 608.5933 L 342.5836 600.9683 L 341.3519 599.4581 L 340.259 598.4347 L 339.1682 597.5566 L 338.0715 596.8213 L 336.9403 596.2401 L 335.7554 595.826 L 334.5207 595.5797 L 333.2376 595.5006 L 331.8416 595.5944 L 330.5292 595.887 L 329.3664 596.385 L 328.362 597.0936 L 326.9661 599.0428 L 326.6127 600.2461 L 326.4916 601.5828 L 326.6388 603.1335 L 327.1027 604.5287 L 327.9187 605.756 L 329.1034 606.7867 L 330.7218 607.6182 L 332.6228 608.164 L 333.7129 608.3528 L 334.9041 608.4868 L 336.197 608.5668 Z M 337.5836 607.5933 L 336.2162 607.567 L 334.9662 607.4888 L 333.8253 607.3591 L 332.7943 607.1788 L 331.039 606.6699 L 329.7181 605.9967 L 328.7067 605.1367 L 327.628 602.9761 L 327.4919 601.6204 L 327.5881 600.4722 L 327.8719 599.4701 L 328.991 597.873 L 330.7971 596.8516 L 331.9478 596.5895 L 333.3046 596.4984 L 334.4559 596.5776 L 335.5562 596.8059 L 336.6067 597.1828 L 337.6112 597.709 L 339.6308 599.2128 L 340.6677 600.1874 L 341.5836 607.5933 Z " fill="#ed7d31" fill-rule="evenodd"/>
<path transform="matrix(1,0,0,-1,0,709)" d="M 141.0326 635.3116 L 143.4372 635.2518 L 145.6584 635.0701 L 147.7053 634.766 L 149.5787 634.3385 L 151.2907 633.7814 L 152.8521 633.0891 L 154.261 632.26 L 155.5154 631.2932 L 156.6148 630.1804 L 157.5565 628.9161 L 158.3369 627.5044 L 158.9555 625.9488 L 159.4238 624.254 L 159.756 622.4202 L 159.9548 620.4447 L 160.0215 618.3275 L 160.0217 590.187 L 159.4454 588.846 L 157.6969 588.1315 L 156.3657 587.9951 L 154.6054 587.9527 L 152.7593 587.994 L 151.4651 588.1209 C 150.5362 588.3621 150.4929 588.3803 150.4527 588.4044 C 149.4168 589.3812 149.3903 589.4476 149.3784 589.5173 L 149.2788 590.1032 L 149.2717 592.3258 L 147.3267 590.6657 L 145.7715 589.6351 L 144.1226 588.7606 L 142.3763 588.0614 L 140.533 587.5598 L 138.5995 587.2583 L 136.5775 587.1564 L 134.906 587.2103 L 133.3079 587.3753 L 131.7749 587.6516 L 130.3074 588.0397 L 128.9184 588.539 L 127.6208 589.1489 L 126.4165 589.8698 L 125.307 590.7016 L 124.3024 591.6439 L 123.4143 592.6954 L 122.6459 593.8535 L 121.9982 595.116 L 121.483 596.4868 L 121.1144 597.9656 L 120.8936 599.5464 L 120.8191 601.228 L 120.9086 603.0428 L 121.1825 604.7458 L 121.6429 606.3337 L 122.2914 607.8041 L 123.1266 609.1545 L 124.1457 610.3825 L 125.3466 611.4858 L 126.7259 612.4629 L 128.2786 613.3148 L 130.0012 614.0442 L 131.893 614.6529 L 133.9534 615.1423 L 136.18 615.518 L 138.5718 615.7855 L 141.1302 615.9458 L 143.8557 615.9994 L 147.4436 615.9995 L 147.4436 618.0308 L 147.3447 619.8495 L 147.0625 621.3376 L 146.5743 622.5907 L 145.8653 623.5908 L 143.6327 624.9155 L 142.0096 625.2482 L 140.0082 625.3591 L 137.2561 625.1957 L 134.8457 624.7122 L 132.7136 624.0345 L 130.8314 623.2849 L 129.2231 622.5346 L 127.8992 621.8519 L 126.7929 621.3489 C 125.7601 621.1379 125.7002 621.1372 125.6417 621.1471 L 125.1554 621.2292 L 124.078 622.0298 L 123.4521 623.4261 L 123.1538 625.2874 L 123.1158 626.3575 L 123.1746 627.6978 L 123.3575 628.7583 C 123.7457 629.7078 123.7669 629.7443 123.7924 629.7777 L 124.7967 630.9161 L 126.0202 631.7215 L 128.6157 632.9428 L 130.7138 633.6894 L 133.0502 634.3388 L 135.586 634.8566 L 138.2657 635.1967 Z M 141.0734 634.3124 L 138.3911 634.2046 L 135.7856 633.8768 L 133.3175 633.3751 L 131.0484 632.7471 L 129.0215 632.0289 L 127.2711 631.2529 L 125.9334 630.5028 L 124.6254 629.2209 L 124.1736 627.6528 L 124.1152 626.3916 L 124.2457 624.5072 L 124.6146 623.1063 L 125.7195 622.1481 L 127.4411 622.7409 L 128.8008 623.441 L 130.462 624.2142 L 132.4119 624.988 L 134.6509 625.6931 L 137.1975 626.194 L 140.0353 626.3587 L 141.1456 626.3276 L 142.1706 626.2352 L 143.9183 625.8747 L 145.3661 625.2508 L 146.5455 624.327 L 147.4257 623.1188 L 148.0111 621.6576 L 148.3433 619.9034 L 148.4436 618.0308 L 148.4436 615.4995 L 143.8752 614.9996 L 141.1925 614.9478 L 138.6826 614.7917 L 136.3459 614.5318 L 134.1838 614.1692 L 132.1983 613.7006 L 130.3899 613.1228 L 128.758 612.4372 L 127.302 611.6455 L 126.0211 610.7476 L 124.9133 609.7416 L 123.9755 608.6258 L 123.2052 607.3981 L 122.6027 606.053 L 122.1695 604.5853 L 121.9073 602.9924 L 121.8181 601.271 L 121.8842 599.6831 L 122.0853 598.2053 L 122.4198 596.8365 L 122.889 595.5705 L 123.4805 594.4044 L 124.1799 593.3388 L 125.9084 591.5006 L 126.9316 590.7269 L 128.0476 590.0533 L 129.2579 589.4796 L 130.5642 589.0062 L 131.9532 588.6356 L 133.4114 588.3699 L 134.9392 588.2097 L 136.5285 588.1552 L 138.4469 588.2466 L 140.2721 588.5252 L 142.006 588.9904 L 143.6552 589.6447 L 145.2202 590.4694 L 146.6973 591.4428 L 148.0875 592.5658 L 149.4219 593.8724 L 150.2717 590.2292 L 151.594 589.1125 L 152.7959 588.9933 L 154.5943 588.9526 L 156.291 588.9923 L 157.4559 589.102 L 158.7253 589.5476 L 159.022 618.2966 L 158.9598 620.3454 L 158.7718 622.243 L 158.4595 623.9892 L 158.0254 625.5815 L 157.4604 627.023 L 156.7526 628.3212 L 155.9013 629.4797 L 154.903 630.5027 L 153.7522 631.3992 L 152.4453 632.1756 L 150.9803 632.8309 L 149.3554 633.3637 L 147.5579 633.777 L 145.5765 634.0735 L 143.4119 634.2521 Z M 143.4436 608.5933 L 147.9436 608.5933 L 148.4436 600.9683 L 147.212 599.4581 L 146.119 598.4347 L 145.0283 597.5566 L 143.9316 596.8213 L 142.8003 596.2401 L 141.6155 595.826 L 140.3808 595.5797 L 139.0976 595.5006 L 137.7016 595.5944 L 136.3892 595.887 L 135.2265 596.385 L 134.222 597.0936 L 132.8261 599.0428 L 132.4728 600.2461 L 132.3516 601.5828 L 132.4988 603.1335 L 132.9628 604.5287 L 133.7787 605.756 L 134.9635 606.7867 L 136.5819 607.6182 L 138.4829 608.164 L 139.573 608.3528 L 140.7641 608.4868 L 142.0571 608.5668 Z M 143.4436 607.5933 L 142.0762 607.567 L 140.8262 607.4888 L 139.6853 607.3591 L 138.6543 607.1788 L 136.8991 606.6699 L 135.5781 605.9967 L 134.5667 605.1367 L 133.4881 602.9761 L 133.352 601.6204 L 133.4481 600.4721 L 133.7319 599.4702 L 134.851 597.873 L 136.6572 596.8516 L 137.8078 596.5895 L 139.1646 596.4984 L 140.316 596.5776 L 141.4163 596.8059 L 142.4667 597.1828 L 143.4713 597.709 L 145.4909 599.2128 L 146.5278 600.1874 L 147.4436 607.5933 Z " fill="#ed7d31" fill-rule="evenodd"/>
<path transform="matrix(1,0,0,-1,0,709)" d="M 49.25611 649.8901 L 92.00611 649.8901 L 93.01155 649.5752 L 93.8085 648.5204 L 94.21034 646.7999 L 94.30332 645.6686 L 94.33411 644.3389 L 94.30481 643.0562 L 94.21534 641.966 L 93.84416 640.316 L 93.1509 639.2585 L 92.09178 638.8194 L 77.31861 638.812 L 77.31861 590.4214 L 76.94765 589.3289 L 75.71 588.5117 L 73.68329 588.099 L 72.30505 587.9893 L 70.64185 587.9528 L 68.98559 587.9879 L 67.61536 588.0948 L 66.50666 588.2631 L 64.9487 588.7813 C 64.05685 589.7783 64.03683 589.8339 64.02694 589.8918 L 63.95077 590.3371 L 63.94361 638.812 L 49.25611 638.812 L 48.20817 639.1609 L 47.45055 640.2348 L 47.05216 641.9241 L 46.95899 643.0266 L 46.92812 644.316 L 46.95741 645.6397 L 47.04679 646.7585 L 47.41771 648.4319 L 48.08695 649.4661 L 49.18259 649.8847 Z M 49.29306 648.8901 L 48.18494 647.5214 L 47.95715 645.6172 L 47.92785 644.3393 L 47.95557 643.1092 L 48.03819 642.0906 L 48.36273 640.647 L 64.44361 639.812 L 64.9436 590.4639 L 65.9218 589.4419 L 67.69373 589.0917 L 69.00709 588.9877 L 70.62036 588.9525 L 72.2267 588.9863 L 73.53205 589.0875 L 74.55624 589.2418 L 75.84164 589.6657 L 76.31861 639.312 L 91.96295 639.812 L 93.07755 641.2234 L 93.30507 643.0795 L 93.33437 644.3164 L 93.30656 645.5882 L 93.22376 646.6366 L 92.90021 648.0993 Z " fill="#ed7d31" fill-rule="evenodd"/>
<path transform="matrix(1,0,0,-1,0,709)" d="M 445.5415 650.1713 L 447.2269 650.1361 L 448.5916 650.0292 L 449.6838 649.8608 L 451.2347 649.3428 C 452.1265 648.3458 452.1466 648.2901 452.1564 648.2323 L 452.2326 647.787 L 452.2398 599.4058 L 470.8179 599.4058 L 471.8646 599.0938 L 472.6672 598.036 L 473.0687 596.3406 L 473.1619 595.2259 L 473.1928 593.9015 L 473.1635 592.5839 L 473.074 591.4821 L 472.7048 589.7913 L 472.0149 588.6863 L 470.8969 588.2402 L 443.021 588.2339 L 441.4752 588.4775 L 440.1282 589.2415 L 439.1795 590.6291 C 438.9381 591.5747 438.9338 591.6027 438.9318 591.6308 L 438.8648 647.7026 L 439.2358 648.7952 L 440.4734 649.6123 L 442.5001 650.025 L 443.8783 650.1347 Z M 445.563 649.1715 L 443.9567 649.1378 L 442.6513 649.0365 L 441.6271 648.8822 L 440.3417 648.4583 L 439.8636 592.6588 L 440.1014 591.0201 L 441.2301 589.6822 L 442.3596 589.2862 L 470.7781 589.2339 L 471.936 590.7263 L 472.1637 592.6065 L 472.193 593.8788 L 472.1653 595.1442 L 472.0827 596.1741 L 471.7592 597.6144 L 451.7398 598.4058 L 451.2398 647.6603 L 450.2612 648.6823 L 448.5129 649.0323 L 447.2058 649.1363 Z " fill="#ed7d31" fill-rule="evenodd"/>
<path transform="matrix(1,0,0,-1,0,709)" d="M 106.2013 652.8896 L 108.0584 652.8061 L 109.6122 652.5493 L 110.8743 652.11 C 111.8933 651.4381 111.9322 651.4015 111.9647 651.3594 L 112.5799 650.5611 L 113.0851 649.3884 L 113.3773 647.9749 L 113.4741 646.3242 L 113.3833 644.6253 L 113.102 643.187 L 112.6192 642 C 111.884 641.0258 111.8451 640.9895 111.8013 640.96 L 110.9195 640.3653 L 109.6153 639.884 L 108.0282 639.6072 L 106.1545 639.5157 L 104.2791 639.5977 L 102.7164 639.8498 L 101.4537 640.2812 C 100.44 640.9429 100.4003 640.9802 100.3673 641.0232 L 99.76233 641.8113 L 99.26432 642.9775 L 98.97697 644.3862 L 98.88186 646.0347 L 98.9712 647.7342 L 99.2478 649.1754 L 99.72205 650.3678 C 100.444 651.3512 100.4826 651.3883 100.5263 651.4185 L 101.4008 652.0235 L 102.709 652.5146 L 104.3079 652.7965 Z M 106.2484 651.8907 L 104.4768 651.8109 L 103.0075 651.5591 L 101.9164 651.1642 L 100.6238 649.9307 L 99.96972 647.6799 L 99.88036 646.0893 L 99.9581 644.5796 L 100.2079 643.3122 L 101.1108 641.697 L 102.9211 640.8295 L 104.3239 640.5967 L 106.1077 640.5146 L 107.861 640.5931 L 109.3209 640.8406 L 110.4126 641.2296 L 111.7215 642.4458 L 112.3848 644.6804 L 112.4756 646.2686 L 112.3897 647.8138 L 112.1426 649.0506 L 111.2215 650.6855 L 109.4031 651.5705 L 108.0124 651.8072 Z " fill="#ed7d31" fill-rule="evenodd"/>
<path transform="matrix(1,0,0,-1,0,709)" d="M 335.1481 610.5287 C 333.2418 610.5287 331.6168 610.3881 330.2731 610.1069 C 328.9293 609.8256 327.8356 609.4037 326.9918 608.8413 C 326.1481 608.2788 325.5309 607.5991 325.1403 606.8022 C 324.7497 606.0053 324.5543 605.0913 324.5543 604.06 C 324.5543 602.31 325.109 600.935 326.2184 599.935 C 327.3278 598.935 328.8668 598.435 330.8356 598.435 C 332.4918 598.435 334.0152 598.8569 335.4059 599.7006 C 336.7965 600.5444 338.2106 601.7788 339.6481 603.4038 L 339.6481 610.5287 Z M 141.0081 610.5287 C 139.1019 610.5287 137.4769 610.3881 136.1331 610.1069 C 134.7894 609.8256 133.6956 609.4037 132.8519 608.8413 C 132.0081 608.2788 131.3909 607.5991 131.0003 606.8022 C 130.6097 606.0053 130.4144 605.0913 130.4144 604.06 C 130.4144 602.31 130.9691 600.935 132.0784 599.935 C 133.1878 598.935 134.7269 598.435 136.6956 598.435 C 138.3519 598.435 139.8753 598.8569 141.2659 599.7006 C 142.6566 600.5444 144.0706 601.7788 145.5081 603.4038 L 145.5081 610.5287 Z M 482.4762 636.4506 C 483.6324 636.4506 484.5856 636.4116 485.3356 636.3334 C 486.0856 636.2553 486.6871 636.1381 487.1403 635.9819 C 487.5934 635.8256 487.9137 635.6303 488.1012 635.3959 C 488.2887 635.1616 488.3825 634.8881 488.3825 634.5756 L 488.3825 610.9506 C 488.3825 608.7631 488.5231 607.0913 488.8043 605.935 C 489.0856 604.7788 489.5152 603.7866 490.0934 602.9584 C 490.6715 602.1303 491.4059 601.4897 492.2965 601.0366 C 493.1871 600.5834 494.2262 600.3569 495.4137 600.3569 C 496.9137 600.3569 498.4215 600.9038 499.9371 601.9975 C 501.4527 603.0913 503.0699 604.685 504.7887 606.7788 L 504.7887 634.5756 C 504.7887 634.8881 504.8746 635.1616 505.0465 635.3959 C 505.2184 635.6303 505.5309 635.8256 505.984 635.9819 C 506.4371 636.1381 507.0387 636.2553 507.7887 636.3334 C 508.5387 636.4116 509.4918 636.4506 510.6481 636.4506 C 511.8043 636.4506 512.7575 636.4116 513.5075 636.3334 C 514.2575 636.2553 514.8512 636.1381 515.2887 635.9819 C 515.7262 635.8256 516.0387 635.6303 516.2262 635.3959 C 516.4137 635.1616 516.5075 634.8881 516.5075 634.5756 L 516.5075 592.7631 C 516.5075 592.4506 516.4293 592.1772 516.2731 591.9428 C 516.1168 591.7084 515.8434 591.5131 515.4528 591.3569 C 515.0621 591.2006 514.5465 591.0834 513.9059 591.0053 C 513.2652 590.9272 512.4605 590.8881 511.4918 590.8881 C 510.4606 590.8881 509.6246 590.9272 508.984 591.0053 C 508.3434 591.0834 507.8356 591.2006 507.4606 591.3569 C 507.0856 591.5131 506.8199 591.7084 506.6637 591.9428 C 506.5074 592.1772 506.4293 592.4506 506.4293 592.7631 L 506.4293 597.5913 C 504.1168 595.0913 501.7653 593.2163 499.3746 591.9663 C 496.984 590.7163 494.5074 590.0913 491.945 590.0913 C 489.0699 590.0913 486.6559 590.56 484.7028 591.4975 C 482.7496 592.435 481.1715 593.7163 479.9684 595.3413 C 478.7652 596.9663 477.9059 598.8491 477.3903 600.9897 C 476.8746 603.1303 476.6168 605.7944 476.6168 608.9819 L 476.6168 634.5756 C 476.6168 634.8881 476.7027 635.1616 476.8746 635.3959 C 477.0465 635.6303 477.359 635.8256 477.8121 635.9819 C 478.2652 636.1381 478.8746 636.2553 479.6403 636.3334 C 480.4059 636.4116 481.3512 636.4506 482.4762 636.4506 Z M 269.7262 636.4506 C 270.8825 636.4506 271.8356 636.4116 272.5856 636.3334 C 273.3356 636.2553 273.9372 636.1381 274.3903 635.9819 C 274.8434 635.8256 275.1637 635.6303 275.3512 635.3959 C 275.5387 635.1616 275.6325 634.8881 275.6325 634.5756 L 275.6325 610.9506 C 275.6325 608.7631 275.7731 607.0913 276.0544 605.935 C 276.3356 604.7788 276.7653 603.7866 277.3434 602.9584 C 277.9215 602.1303 278.6559 601.4897 279.5465 601.0366 C 280.4372 600.5834 281.4762 600.3569 282.6637 600.3569 C 284.1637 600.3569 285.6715 600.9038 287.1872 601.9975 C 288.7028 603.0913 290.32 604.685 292.0387 606.7788 L 292.0387 634.5756 C 292.0387 634.8881 292.1247 635.1616 292.2965 635.3959 C 292.4684 635.6303 292.7809 635.8256 293.234 635.9819 C 293.6872 636.1381 294.2887 636.2553 295.0387 636.3334 C 295.7887 636.4116 296.7418 636.4506 297.8981 636.4506 C 299.0543 636.4506 300.0075 636.4116 300.7575 636.3334 C 301.5075 636.2553 302.1012 636.1381 302.5387 635.9819 C 302.9762 635.8256 303.2887 635.6303 303.4762 635.3959 C 303.6637 635.1616 303.7574 634.8881 303.7575 634.5756 L 303.7575 592.7631 C 303.7574 592.4506 303.6793 592.1772 303.5231 591.9428 C 303.3668 591.7084 303.0934 591.5131 302.7028 591.3569 C 302.3122 591.2006 301.7965 591.0834 301.1559 591.0053 C 300.5153 590.9272 299.7106 590.8881 298.7418 590.8881 C 297.7106 590.8881 296.8747 590.9272 296.234 591.0053 C 295.5934 591.0834 295.0856 591.2006 294.7106 591.3569 C 294.3356 591.5131 294.07 591.7084 293.9137 591.9428 C 293.7575 592.1772 293.6793 592.4506 293.6793 592.7631 L 293.6793 597.5913 C 291.3668 595.0913 289.0153 593.2163 286.6247 591.9663 C 284.234 590.7163 281.7575 590.0913 279.195 590.0913 C 276.32 590.0913 273.9059 590.56 271.9528 591.4975 C 269.9997 592.435 268.4215 593.7163 267.2184 595.3413 C 266.0153 596.9663 265.1559 598.8491 264.6403 600.9897 C 264.1246 603.1303 263.8668 605.7944 263.8669 608.9819 L 263.8669 634.5756 C 263.8668 634.8881 263.9528 635.1616 264.1247 635.3959 C 264.2965 635.6303 264.6091 635.8256 265.0622 635.9819 C 265.5153 636.1381 266.1247 636.2553 266.8903 636.3334 C 267.6559 636.4116 268.6012 636.4506 269.7262 636.4506 Z M 219.7262 636.4506 C 221.07 636.4506 222.1325 636.4272 222.9137 636.3803 C 223.695 636.3334 224.3044 636.2162 224.7419 636.0287 C 225.1794 635.8412 225.5075 635.5522 225.7262 635.1616 C 225.945 634.7709 226.1637 634.2162 226.3825 633.4975 L 236.2262 605.5131 L 236.3669 605.5131 L 245.3669 634.06 C 245.5544 634.8725 245.7965 635.4116 246.0934 635.6772 C 246.3903 635.9428 246.8825 636.1381 247.57 636.2631 C 248.2575 636.3881 249.4606 636.4506 251.1794 636.4506 C 252.5231 636.4506 253.6403 636.3881 254.5309 636.2631 C 255.4215 636.1381 256.0778 635.9037 256.4997 635.56 C 256.9215 635.2162 257.1325 634.7553 257.1325 634.1772 C 257.1325 633.5991 257.0075 632.9194 256.7575 632.1381 L 242.8356 591.1694 L 237.7731 576.3569 C 237.4919 575.5756 236.7262 575.0131 235.4762 574.6694 C 234.2262 574.3256 232.3981 574.1538 229.9919 574.1538 C 228.7418 574.1538 227.7418 574.2084 226.9919 574.3178 C 226.2418 574.4272 225.6794 574.6069 225.3044 574.8569 C 224.9293 575.1069 224.7262 575.4194 224.695 575.7944 C 224.6637 576.1694 224.7575 576.6225 224.9762 577.1538 L 230.5544 591.1694 C 230.1481 591.3569 229.7809 591.6459 229.4528 592.0366 C 229.1247 592.4272 228.8825 592.8413 228.7262 593.2788 L 214.3356 631.7162 C 213.9294 632.81 213.7262 633.6459 213.7262 634.2241 C 213.7262 634.8022 213.9137 635.2553 214.2887 635.5834 C 214.6637 635.9116 215.2965 636.1381 216.1872 636.2631 C 217.0778 636.3881 218.2575 636.4506 219.7262 636.4506 Z M 103.7425 636.4506 C 104.8987 636.4506 105.8519 636.4037 106.6019 636.31 C 107.3519 636.2162 107.9534 636.0834 108.4066 635.9116 C 108.8597 635.7397 109.18 635.5366 109.3675 635.3022 C 109.555 635.0678 109.6487 634.7944 109.6487 634.4819 L 109.6487 592.7631 C 109.6487 592.4506 109.555 592.1772 109.3675 591.9428 C 109.18 591.7084 108.8597 591.5131 108.4066 591.3569 C 107.9534 591.2006 107.3519 591.0834 106.6019 591.0053 C 105.8519 590.9272 104.8987 590.8881 103.7425 590.8881 C 102.5862 590.8881 101.6331 590.9272 100.8831 591.0053 C 100.1331 591.0834 99.53157 591.2006 99.07844 591.3569 C 98.62532 591.5131 98.305 591.7084 98.1175 591.9428 C 97.93 592.1772 97.83625 592.4506 97.83625 592.7631 L 97.83625 634.4819 C 97.83625 634.7944 97.93 635.0678 98.1175 635.3022 C 98.305 635.5366 98.62532 635.7397 99.07844 635.9116 C 99.53157 636.0834 100.1331 636.2162 100.8831 636.31 C 101.6331 636.4037 102.5862 636.4506 103.7425 636.4506 Z M 387.5856 637.2475 C 390.4293 637.2475 392.8277 636.7787 394.7809 635.8412 C 396.734 634.9037 398.3121 633.6303 399.5153 632.0209 C 400.7184 630.4116 401.5856 628.5287 402.1168 626.3725 C 402.6481 624.2162 402.9137 621.6225 402.9137 618.5912 L 402.9137 592.7631 C 402.9137 592.4506 402.82 592.1772 402.6325 591.9428 C 402.445 591.7084 402.1325 591.5131 401.695 591.3569 C 401.2574 591.2006 400.6559 591.0834 399.8903 591.0053 C 399.1246 590.9272 398.1793 590.8881 397.0543 590.8881 C 395.8981 590.8881 394.9371 590.9272 394.1715 591.0053 C 393.4059 591.0834 392.8043 591.2006 392.3668 591.3569 C 391.9293 591.5131 391.6168 591.7084 391.4293 591.9428 C 391.2418 592.1772 391.1481 592.4506 391.1481 592.7631 L 391.1481 616.6225 C 391.1481 618.6537 390.9996 620.2475 390.7028 621.4037 C 390.4059 622.56 389.9762 623.5522 389.4137 624.3803 C 388.8512 625.2084 388.1246 625.8491 387.234 626.3022 C 386.3434 626.7553 385.3043 626.9819 384.1168 626.9819 C 382.6168 626.9819 381.1012 626.435 379.57 625.3412 C 378.0387 624.2475 376.4449 622.6537 374.7887 620.56 L 374.7887 592.7631 C 374.7887 592.4506 374.695 592.1772 374.5075 591.9428 C 374.32 591.7084 373.9996 591.5131 373.5465 591.3569 C 373.0934 591.2006 372.4918 591.0834 371.7418 591.0053 C 370.9918 590.9272 370.0387 590.8881 368.8825 590.8881 C 367.7262 590.8881 366.7731 590.9272 366.0231 591.0053 C 365.2731 591.0834 364.6715 591.2006 364.2184 591.3569 C 363.7653 591.5131 363.445 591.7084 363.2575 591.9428 C 363.07 592.1772 362.9762 592.4506 362.9762 592.7631 L 362.9762 634.5756 C 362.9762 634.8881 363.0543 635.1616 363.2106 635.3959 C 363.3668 635.6303 363.6481 635.8256 364.0543 635.9819 C 364.4606 636.1381 364.984 636.2553 365.6246 636.3334 C 366.2652 636.4116 367.0699 636.4506 368.0387 636.4506 C 369.0387 636.4506 369.8668 636.4116 370.5231 636.3334 C 371.1793 636.2553 371.6871 636.1381 372.0465 635.9819 C 372.4059 635.8256 372.6637 635.6303 372.82 635.3959 C 372.9762 635.1616 373.0543 634.8881 373.0543 634.5756 L 373.0543 629.7475 C 375.3668 632.2475 377.7184 634.1225 380.109 635.3725 C 382.4996 636.6225 384.9918 637.2475 387.5856 637.2475 Z M 332.7575 637.2475 C 336.0387 637.2475 338.8434 636.9272 341.1715 636.2866 C 343.4996 635.6459 345.4137 634.6616 346.9137 633.3334 C 348.4137 632.0053 349.5074 630.2944 350.195 628.2006 C 350.8824 626.1069 351.2262 623.6225 351.2262 620.7475 L 351.2262 592.6225 C 351.2262 592.185 351.0699 591.8413 350.7575 591.5913 C 350.4449 591.3413 349.9527 591.1616 349.2809 591.0522 C 348.609 590.9428 347.6168 590.8881 346.3043 590.8881 C 344.8981 590.8881 343.8746 590.9428 343.234 591.0522 C 342.5934 591.1616 342.1403 591.3413 341.8746 591.5913 C 341.609 591.8413 341.4762 592.185 341.4762 592.6225 L 341.4762 595.9506 C 339.7574 594.1069 337.7965 592.6694 335.5934 591.6381 C 333.3903 590.6069 330.9449 590.0913 328.2575 590.0913 C 326.0387 590.0913 323.9997 590.3803 322.1403 590.9584 C 320.2809 591.5366 318.6715 592.3959 317.3122 593.5366 C 315.9528 594.6772 314.8981 596.0913 314.1481 597.7788 C 313.3981 599.4663 313.0231 601.435 313.0231 603.685 C 313.0231 606.1225 313.4997 608.2397 314.4528 610.0366 C 315.4059 611.8334 316.8278 613.3178 318.7184 614.4897 C 320.609 615.6616 322.9606 616.5287 325.7731 617.0912 C 328.5856 617.6537 331.8512 617.935 335.57 617.935 L 339.6481 617.935 L 339.6481 620.4662 C 339.6481 621.7787 339.5153 622.9272 339.2496 623.9116 C 338.984 624.8959 338.5465 625.7162 337.9371 626.3725 C 337.3277 627.0287 336.5152 627.5131 335.4996 627.8256 C 334.484 628.1381 333.2262 628.2944 331.7262 628.2944 C 329.7575 628.2944 327.9996 628.0756 326.4528 627.6381 C 324.9059 627.2006 323.5387 626.7162 322.3512 626.185 C 321.1637 625.6537 320.1715 625.1694 319.3747 624.7319 C 318.5778 624.2944 317.9293 624.0756 317.4293 624.0756 C 317.0856 624.0756 316.7809 624.185 316.5153 624.4037 C 316.2496 624.6225 316.0309 624.935 315.859 625.3412 C 315.6871 625.7475 315.5543 626.2475 315.4606 626.8412 C 315.3668 627.435 315.32 628.0912 315.32 628.81 C 315.32 629.7787 315.3981 630.5444 315.5543 631.1069 C 315.7106 631.6694 316.0075 632.1772 316.445 632.6303 C 316.8824 633.0834 317.6481 633.5834 318.7418 634.1303 C 319.8356 634.6772 321.1168 635.185 322.5856 635.6537 C 324.0543 636.1225 325.6559 636.5053 327.3903 636.8022 C 329.1246 637.0991 330.9137 637.2475 332.7575 637.2475 Z M 193.4456 637.2475 C 196.2894 637.2475 198.6878 636.7787 200.6409 635.8412 C 202.5941 634.9037 204.1722 633.6303 205.3753 632.0209 C 206.5784 630.4116 207.4456 628.5287 207.9769 626.3725 C 208.5081 624.2162 208.7737 621.6225 208.7737 618.5912 L 208.7737 592.7631 C 208.7737 592.4506 208.68 592.1772 208.4925 591.9428 C 208.305 591.7084 207.9925 591.5131 207.555 591.3569 C 207.1175 591.2006 206.5159 591.0834 205.7503 591.0053 C 204.9847 590.9272 204.0393 590.8881 202.9144 590.8881 C 201.7581 590.8881 200.7972 590.9272 200.0315 591.0053 C 199.2659 591.0834 198.6644 591.2006 198.2269 591.3569 C 197.7894 591.5131 197.4769 591.7084 197.2894 591.9428 C 197.1018 592.1772 197.0081 592.4506 197.0081 592.7631 L 197.0081 616.6225 C 197.0081 618.6537 196.8597 620.2475 196.5628 621.4037 C 196.2659 622.56 195.8362 623.5522 195.2738 624.3803 C 194.7112 625.2084 193.9847 625.8491 193.094 626.3022 C 192.2034 626.7553 191.1644 626.9819 189.9769 626.9819 C 188.4769 626.9819 186.9612 626.435 185.43 625.3412 C 183.8987 624.2475 182.305 622.6537 180.6487 620.56 L 180.6487 592.7631 C 180.6487 592.4506 180.555 592.1772 180.3675 591.9428 C 180.18 591.7084 179.8597 591.5131 179.4066 591.3569 C 178.9534 591.2006 178.3519 591.0834 177.6019 591.0053 C 176.8519 590.9272 175.8988 590.8881 174.7425 590.8881 C 173.5863 590.8881 172.6331 590.9272 171.8831 591.0053 C 171.1331 591.0834 170.5316 591.2006 170.0784 591.3569 C 169.6253 591.5131 169.305 591.7084 169.1175 591.9428 C 168.93 592.1772 168.8362 592.4506 168.8362 592.7631 L 168.8362 634.5756 C 168.8362 634.8881 168.9144 635.1616 169.0706 635.3959 C 169.2269 635.6303 169.5081 635.8256 169.9144 635.9819 C 170.3206 636.1381 170.8441 636.2553 171.4847 636.3334 C 172.1253 636.4116 172.93 636.4506 173.8987 636.4506 C 174.8988 636.4506 175.7269 636.4116 176.3831 636.3334 C 177.0394 636.2553 177.5472 636.1381 177.9066 635.9819 C 178.2659 635.8256 178.5237 635.6303 178.68 635.3959 C 178.8362 635.1616 178.9144 634.8881 178.9144 634.5756 L 178.9144 629.7475 C 181.2269 632.2475 183.5784 634.1225 185.969 635.3725 C 188.3597 636.6225 190.8519 637.2475 193.4456 637.2475 Z M 138.6175 637.2475 C 141.8988 637.2475 144.7034 636.9272 147.0316 636.2866 C 149.3597 635.6459 151.2738 634.6616 152.7738 633.3334 C 154.2738 632.0053 155.3675 630.2944 156.055 628.2006 C 156.7425 626.1069 157.0863 623.6225 157.0863 620.7475 L 157.0863 592.6225 C 157.0863 592.185 156.93 591.8413 156.6175 591.5913 C 156.305 591.3413 155.8128 591.1616 155.1409 591.0522 C 154.4691 590.9428 153.4769 590.8881 152.1644 590.8881 C 150.7581 590.8881 149.7347 590.9428 149.0941 591.0522 C 148.4534 591.1616 148.0003 591.3413 147.7347 591.5913 C 147.4691 591.8413 147.3363 592.185 147.3363 592.6225 L 147.3363 595.9506 C 145.6175 594.1069 143.6566 592.6694 141.4534 591.6381 C 139.2503 590.6069 136.805 590.0913 134.1175 590.0913 C 131.8987 590.0913 129.8597 590.3803 128.0003 590.9584 C 126.1409 591.5366 124.5316 592.3959 123.1722 593.5366 C 121.8128 594.6772 120.7581 596.0913 120.0081 597.7788 C 119.2581 599.4663 118.8831 601.435 118.8831 603.685 C 118.8831 606.1225 119.3597 608.2397 120.3128 610.0366 C 121.2659 611.8334 122.6878 613.3178 124.5784 614.4897 C 126.4691 615.6616 128.8206 616.5287 131.6331 617.0912 C 134.4456 617.6537 137.7112 617.935 141.43 617.935 L 145.5081 617.935 L 145.5081 620.4662 C 145.5081 621.7787 145.3753 622.9272 145.1097 623.9116 C 144.8441 624.8959 144.4066 625.7162 143.7972 626.3725 C 143.1878 627.0287 142.3753 627.5131 141.3597 627.8256 C 140.3441 628.1381 139.0862 628.2944 137.5862 628.2944 C 135.6175 628.2944 133.8597 628.0756 132.3128 627.6381 C 130.7659 627.2006 129.3987 626.7162 128.2112 626.185 C 127.0237 625.6537 126.0316 625.1694 125.2347 624.7319 C 124.4378 624.2944 123.7894 624.0756 123.2894 624.0756 C 122.9456 624.0756 122.6409 624.185 122.3753 624.4037 C 122.1097 624.6225 121.8909 624.935 121.7191 625.3412 C 121.5472 625.7475 121.4144 626.2475 121.3206 626.8412 C 121.2269 627.435 121.18 628.0912 121.18 628.81 C 121.18 629.7787 121.2581 630.5444 121.4144 631.1069 C 121.5706 631.6694 121.8675 632.1772 122.305 632.6303 C 122.7425 633.0834 123.5081 633.5834 124.6019 634.1303 C 125.6956 634.6772 126.9769 635.185 128.4456 635.6537 C 129.9144 636.1225 131.5159 636.5053 133.2503 636.8022 C 134.9847 637.0991 136.7737 637.2475 138.6175 637.2475 Z M 46.82063 651.8256 L 89.57063 651.8256 C 89.85187 651.8256 90.10968 651.7397 90.34406 651.5678 C 90.57843 651.3959 90.77375 651.1147 90.93 650.7241 C 91.08625 650.3334 91.20343 649.81 91.28156 649.1537 C 91.35969 648.4975 91.39875 647.7006 91.39875 646.7631 C 91.39875 645.8569 91.35969 645.0834 91.28156 644.4428 C 91.20343 643.8022 91.08625 643.2866 90.93 642.8959 C 90.77375 642.5053 90.57843 642.2162 90.34406 642.0287 C 90.10968 641.8412 89.85187 641.7475 89.57063 641.7475 L 74.38313 641.7475 L 74.38313 592.8569 C 74.38313 592.5444 74.28156 592.2631 74.07844 592.0131 C 73.87531 591.7631 73.53937 591.56 73.07063 591.4038 C 72.60188 591.2475 71.96906 591.1225 71.17219 591.0288 C 70.37532 590.935 69.38313 590.8881 68.19562 590.8881 C 67.00812 590.8881 66.01594 590.935 65.21906 591.0288 C 64.42219 591.1225 63.78937 591.2475 63.32063 591.4038 C 62.85188 591.56 62.51594 591.7631 62.31281 592.0131 C 62.10969 592.2631 62.00813 592.5444 62.00813 592.8569 L 62.00813 641.7475 L 46.82063 641.7475 C 46.50812 641.7475 46.2425 641.8412 46.02375 642.0287 C 45.805 642.2162 45.6175 642.5053 45.46125 642.8959 C 45.305 643.2866 45.18781 643.8022 45.10969 644.4428 C 45.03156 645.0834 44.9925 645.8569 44.9925 646.7631 C 44.9925 647.7006 45.03156 648.4975 45.10969 649.1537 C 45.18781 649.81 45.305 650.3334 45.46125 650.7241 C 45.6175 651.1147 45.805 651.3959 46.02375 651.5678 C 46.2425 651.7397 46.50812 651.8256 46.82063 651.8256 Z M 443.1168 652.1069 C 444.3355 652.1069 445.3355 652.06 446.1168 651.9662 C 446.8981 651.8725 447.523 651.7475 447.9918 651.5912 C 448.4605 651.435 448.7965 651.2319 448.9996 650.9819 C 449.2027 650.7319 449.3043 650.4506 449.3043 650.1381 L 449.3043 601.3413 L 468.3824 601.3413 C 468.6949 601.3413 468.9683 601.2553 469.2027 601.0834 C 469.4371 600.9116 469.6324 600.6303 469.7887 600.2397 C 469.9449 599.8491 470.0621 599.3334 470.1402 598.6928 C 470.2184 598.0522 470.2574 597.2631 470.2574 596.3256 C 470.2574 595.3881 470.2184 594.5991 470.1402 593.9584 C 470.0621 593.3178 469.9449 592.7866 469.7887 592.3647 C 469.6324 591.9428 469.4371 591.6381 469.2027 591.4506 C 468.9683 591.2631 468.6949 591.1694 468.3824 591.1694 L 440.5855 591.1694 C 439.5543 591.1694 438.6871 591.4741 437.984 592.0834 C 437.2808 592.6928 436.9293 593.685 436.9293 595.06 L 436.9293 650.1381 C 436.9293 650.4506 437.0309 650.7319 437.234 650.9819 C 437.4371 651.2319 437.7731 651.435 438.2418 651.5912 C 438.7106 651.7475 439.3434 651.8725 440.1402 651.9662 C 440.9371 652.06 441.9293 652.1069 443.1168 652.1069 Z M 103.7894 654.8256 C 106.4144 654.8256 108.1956 654.3803 109.1331 653.4897 C 110.0706 652.5991 110.5394 651.0131 110.5394 648.7319 C 110.5394 646.3569 110.055 644.7162 109.0862 643.81 C 108.1175 642.9037 106.3206 642.4506 103.6956 642.4506 C 101.0394 642.4506 99.25031 642.8881 98.32844 643.7631 C 97.40656 644.6381 96.94562 646.2162 96.94562 648.4975 C 96.94562 650.8725 97.42219 652.5209 98.37531 653.4428 C 99.32844 654.3647 101.1331 654.8256 103.7894 654.8256 Z " fill="#ffffff" fill-rule="evenodd"/>
<path transform="matrix(1,0,0,1,44.43,117.83063)" stroke-width="1" stroke-linecap="butt" stroke-linejoin="round" fill="none" stroke="#ffe699" d="M 290.7181 -19.35937 C 288.8118 -19.35937 287.1869 -19.21875 285.8431 -18.9375 C 284.4993 -18.65625 283.4056 -18.23438 282.5619 -17.67188 C 281.7181 -17.10938 281.1009 -16.42969 280.7103 -15.63281 C 280.3197 -14.83594 280.1244 -13.92188 280.1244 -12.89062 C 280.1244 -11.14062 280.679 -9.765624 281.7884 -8.765625 C 282.8978 -7.765625 284.4369 -7.265625 286.4056 -7.265625 C 288.0618 -7.265625 289.5853 -7.6875 290.9759 -8.53125 C 292.3665 -9.375 293.7806 -10.60938 295.2181 -12.23438 L 295.2181 -19.35937 Z M 96.57814 -19.35937 C 94.67188 -19.35937 93.04688 -19.21875 91.70313 -18.9375 C 90.35938 -18.65625 89.26563 -18.23438 88.42188 -17.67188 C 87.57813 -17.10938 86.96095 -16.42969 86.57032 -15.63281 C 86.1797 -14.83594 85.98438 -13.92188 85.98438 -12.89062 C 85.98438 -11.14062 86.53907 -9.765624 87.64845 -8.765625 C 88.75782 -7.765625 90.29688 -7.265625 92.26563 -7.265625 C 93.92188 -7.265625 95.44532 -7.6875 96.83595 -8.53125 C 98.22657 -9.375 99.64063 -10.60938 101.0781 -12.23438 L 101.0781 -19.35937 Z M 438.0462 -45.28125 C 439.2025 -45.28125 440.1556 -45.24219 440.9056 -45.16406 C 441.6556 -45.08594 442.2571 -44.96875 442.7103 -44.8125 C 443.1634 -44.65625 443.4837 -44.46093 443.6712 -44.22656 C 443.8587 -43.99218 443.9525 -43.71875 443.9525 -43.40625 L 443.9525 -19.78125 C 443.9525 -17.59375 444.0931 -15.92187 444.3744 -14.76562 C 444.6556 -13.60937 445.0853 -12.61719 445.6634 -11.78906 C 446.2415 -10.96094 446.9759 -10.32031 447.8665 -9.867188 C 448.7572 -9.414062 449.7962 -9.1875 450.9837 -9.1875 C 452.4837 -9.1875 453.9915 -9.734375 455.5072 -10.82813 C 457.0228 -11.92188 458.64 -13.51562 460.3587 -15.60938 L 460.3587 -43.40625 C 460.3587 -43.71875 460.4446 -43.99218 460.6165 -44.22656 C 460.7884 -44.46093 461.1009 -44.65625 461.554 -44.8125 C 462.0071 -44.96875 462.6087 -45.08594 463.3587 -45.16406 C 464.1087 -45.24219 465.0618 -45.28125 466.2181 -45.28125 C 467.3743 -45.28125 468.3275 -45.24219 469.0775 -45.16406 C 469.8275 -45.08594 470.4212 -44.96875 470.8587 -44.8125 C 471.2962 -44.65625 471.6087 -44.46093 471.7962 -44.22656 C 471.9837 -43.99218 472.0775 -43.71875 472.0775 -43.40625 L 472.0775 -1.59375 C 472.0775 -1.28125 471.9993 -1.007812 471.8431 -.7734377 C 471.6868 -.5390622 471.4134 -.3437502 471.0228 -.1874995 C 470.6321 -.03124991 470.1165 .08593725 469.4759 .164062 C 468.8353 .242188 468.0306 .2812504 467.0619 .2812504 C 466.0306 .2812504 465.1946 .242188 464.554 .164062 C 463.9134 .08593725 463.4056 -.03124991 463.0306 -.1874995 C 462.6556 -.3437502 462.39 -.5390622 462.2337 -.7734377 C 462.0775 -1.007812 461.9994 -1.28125 461.9994 -1.59375 L 461.9994 -6.421875 C 459.6868 -3.921875 457.3353 -2.046875 454.9447 -.7968751 C 452.554 .4531249 450.0775 1.078126 447.515 1.078126 C 444.64 1.078126 442.2259 .6093745 440.2728 -.3281253 C 438.3196 -1.265625 436.7415 -2.546875 435.5384 -4.171875 C 434.3353 -5.796874 433.4759 -7.679688 432.9603 -9.820312 C 432.4447 -11.96094 432.1869 -14.625 432.1869 -17.8125 L 432.1869 -43.40625 C 432.1869 -43.71875 432.2728 -43.99218 432.4447 -44.22656 C 432.6165 -44.46093 432.929 -44.65625 433.3822 -44.8125 C 433.8353 -44.96875 434.4446 -45.08594 435.2103 -45.16406 C 435.9759 -45.24219 436.9212 -45.28125 438.0462 -45.28125 Z M 225.2962 -45.28125 C 226.4525 -45.28125 227.4056 -45.24219 228.1556 -45.16406 C 228.9056 -45.08594 229.5072 -44.96875 229.9603 -44.8125 C 230.4134 -44.65625 230.7337 -44.46093 230.9212 -44.22656 C 231.1087 -43.99218 231.2025 -43.71875 231.2025 -43.40625 L 231.2025 -19.78125 C 231.2025 -17.59375 231.3431 -15.92187 231.6244 -14.76562 C 231.9056 -13.60937 232.3353 -12.61719 232.9134 -11.78906 C 233.4915 -10.96094 234.2259 -10.32031 235.1166 -9.867188 C 236.0072 -9.414062 237.0462 -9.1875 238.2337 -9.1875 C 239.7337 -9.1875 241.2415 -9.734375 242.7572 -10.82813 C 244.2728 -11.92188 245.89 -13.51562 247.6087 -15.60938 L 247.6087 -43.40625 C 247.6087 -43.71875 247.6947 -43.99218 247.8665 -44.22656 C 248.0384 -44.46093 248.3509 -44.65625 248.804 -44.8125 C 249.2572 -44.96875 249.8587 -45.08594 250.6087 -45.16406 C 251.3587 -45.24219 252.3119 -45.28125 253.4681 -45.28125 C 254.6244 -45.28125 255.5775 -45.24219 256.3275 -45.16406 C 257.0775 -45.08594 257.6712 -44.96875 258.1087 -44.8125 C 258.5462 -44.65625 258.8587 -44.46093 259.0462 -44.22656 C 259.2337 -43.99218 259.3275 -43.71875 259.3275 -43.40625 L 259.3275 -1.59375 C 259.3275 -1.28125 259.2494 -1.007812 259.0931 -.7734377 C 258.9369 -.5390622 258.6635 -.3437502 258.2728 -.1874995 C 257.8822 -.03124991 257.3665 .08593725 256.7259 .164062 C 256.0853 .242188 255.2806 .2812504 254.3119 .2812504 C 253.2806 .2812504 252.4447 .242188 251.804 .164062 C 251.1634 .08593725 250.6556 -.03124991 250.2806 -.1874995 C 249.9056 -.3437502 249.64 -.5390622 249.4837 -.7734377 C 249.3275 -1.007812 249.2493 -1.28125 249.2494 -1.59375 L 249.2494 -6.421875 C 246.9369 -3.921875 244.5853 -2.046875 242.1947 -.7968751 C 239.804 .4531249 237.3275 1.078126 234.765 1.078126 C 231.89 1.078126 229.4759 .6093745 227.5228 -.3281253 C 225.5697 -1.265625 223.9915 -2.546875 222.7884 -4.171875 C 221.5853 -5.796874 220.7259 -7.679688 220.2103 -9.820312 C 219.6947 -11.96094 219.4369 -14.625 219.4369 -17.8125 L 219.4369 -43.40625 C 219.4369 -43.71875 219.5228 -43.99218 219.6947 -44.22656 C 219.8666 -44.46093 220.1791 -44.65625 220.6322 -44.8125 C 221.0853 -44.96875 221.6947 -45.08594 222.4603 -45.16406 C 223.2259 -45.24219 224.1712 -45.28125 225.2962 -45.28125 Z M 175.2962 -45.28125 C 176.64 -45.28125 177.7025 -45.25781 178.4838 -45.21094 C 179.265 -45.16406 179.8744 -45.04687 180.3119 -44.85938 C 180.7494 -44.67187 181.0775 -44.38281 181.2963 -43.99219 C 181.515 -43.60156 181.7337 -43.04688 181.9525 -42.32812 L 191.7962 -14.34375 L 191.9369 -14.34375 L 200.9369 -42.89062 C 201.1244 -43.70312 201.3666 -44.24219 201.6635 -44.50781 C 201.9603 -44.77344 202.4525 -44.96875 203.14 -45.09375 C 203.8275 -45.21875 205.0306 -45.28125 206.7494 -45.28125 C 208.0931 -45.28125 209.2103 -45.21875 210.101 -45.09375 C 210.9916 -44.96875 211.6478 -44.73438 212.0697 -44.39062 C 212.4916 -44.04688 212.7025 -43.58593 212.7025 -43.00781 C 212.7025 -42.42969 212.5775 -41.75 212.3275 -40.96875 L 198.4056 0 L 193.3431 14.8125 C 193.0619 15.59375 192.2962 16.15625 191.0463 16.5 C 189.7962 16.84375 187.9681 17.01562 185.5619 17.01562 C 184.3119 17.01562 183.3119 16.96094 182.5619 16.85156 C 181.8119 16.74219 181.2494 16.5625 180.8744 16.3125 C 180.4994 16.0625 180.2962 15.75 180.265 15.375 C 180.2337 15 180.3275 14.54687 180.5462 14.01562 L 186.1244 0 C 185.7181 -.1874995 185.3509 -.4765624 185.0228 -.8671874 C 184.6947 -1.257812 184.4525 -1.671875 184.2963 -2.109375 L 169.9056 -40.54688 C 169.4994 -41.64062 169.2962 -42.47656 169.2962 -43.05469 C 169.2962 -43.63281 169.4837 -44.08594 169.8587 -44.41406 C 170.2338 -44.74219 170.8666 -44.96875 171.7572 -45.09375 C 172.6478 -45.21875 173.8275 -45.28125 175.2962 -45.28125 Z M 59.31251 -45.28125 C 60.46876 -45.28125 61.42188 -45.23437 62.17188 -45.14062 C 62.92188 -45.04687 63.52345 -44.91406 63.97657 -44.74219 C 64.4297 -44.57031 64.75001 -44.36719 64.93751 -44.13281 C 65.12501 -43.89844 65.21876 -43.625 65.21876 -43.3125 L 65.21876 -1.59375 C 65.21876 -1.28125 65.12501 -1.007812 64.93751 -.7734377 C 64.75001 -.5390622 64.4297 -.3437502 63.97657 -.1874995 C 63.52345 -.03124991 62.92188 .08593725 62.17188 .164062 C 61.42188 .242188 60.46876 .2812504 59.31251 .2812504 C 58.15625 .2812504 57.20313 .242188 56.45313 .164062 C 55.70313 .08593725 55.10157 -.03124991 54.64845 -.1874995 C 54.19532 -.3437502 53.87501 -.5390622 53.68751 -.7734377 C 53.50001 -1.007812 53.40625 -1.28125 53.40625 -1.59375 L 53.40625 -43.3125 C 53.40625 -43.625 53.50001 -43.89844 53.68751 -44.13281 C 53.87501 -44.36719 54.19532 -44.57031 54.64845 -44.74219 C 55.10157 -44.91406 55.70313 -45.04687 56.45313 -45.14062 C 57.20313 -45.23437 58.15625 -45.28125 59.31251 -45.28125 Z M 343.1556 -46.07812 C 345.9993 -46.07812 348.3978 -45.60938 350.3509 -44.67188 C 352.304 -43.73438 353.8822 -42.46094 355.0853 -40.85156 C 356.2884 -39.24219 357.1556 -37.35938 357.6869 -35.20312 C 358.2181 -33.04688 358.4837 -30.45312 358.4837 -27.42187 L 358.4837 -1.59375 C 358.4837 -1.28125 358.39 -1.007812 358.2025 -.7734377 C 358.015 -.5390622 357.7025 -.3437502 357.265 -.1874995 C 356.8275 -.03124991 356.2259 .08593725 355.4603 .164062 C 354.6946 .242188 353.7493 .2812504 352.6244 .2812504 C 351.4681 .2812504 350.5072 .242188 349.7415 .164062 C 348.9759 .08593725 348.3743 -.03124991 347.9369 -.1874995 C 347.4993 -.3437502 347.1868 -.5390622 346.9994 -.7734377 C 346.8118 -1.007812 346.7181 -1.28125 346.7181 -1.59375 L 346.7181 -25.45312 C 346.7181 -27.48438 346.5696 -29.07812 346.2728 -30.23437 C 345.9759 -31.39062 345.5462 -32.38281 344.9837 -33.21094 C 344.4212 -34.03906 343.6947 -34.67969 342.804 -35.13281 C 341.9134 -35.58594 340.8744 -35.8125 339.6869 -35.8125 C 338.1868 -35.8125 336.6712 -35.26562 335.14 -34.17188 C 333.6087 -33.07812 332.015 -31.48437 330.3587 -29.39062 L 330.3587 -1.59375 C 330.3587 -1.28125 330.265 -1.007812 330.0775 -.7734377 C 329.89 -.5390622 329.5696 -.3437502 329.1165 -.1874995 C 328.6634 -.03124991 328.0618 .08593725 327.3119 .164062 C 326.5618 .242188 325.6087 .2812504 324.4525 .2812504 C 323.2962 .2812504 322.3431 .242188 321.5931 .164062 C 320.8431 .08593725 320.2415 -.03124991 319.7884 -.1874995 C 319.3353 -.3437502 319.015 -.5390622 318.8275 -.7734377 C 318.64 -1.007812 318.5462 -1.28125 318.5462 -1.59375 L 318.5462 -43.40625 C 318.5462 -43.71875 318.6243 -43.99218 318.7806 -44.22656 C 318.9368 -44.46093 319.2181 -44.65625 319.6244 -44.8125 C 320.0306 -44.96875 320.554 -45.08594 321.1947 -45.16406 C 321.8353 -45.24219 322.64 -45.28125 323.6087 -45.28125 C 324.6087 -45.28125 325.4368 -45.24219 326.0931 -45.16406 C 326.7493 -45.08594 327.2571 -44.96875 327.6165 -44.8125 C 327.9759 -44.65625 328.2337 -44.46093 328.39 -44.22656 C 328.5462 -43.99218 328.6243 -43.71875 328.6244 -43.40625 L 328.6244 -38.57812 C 330.9368 -41.07812 333.2884 -42.95312 335.679 -44.20312 C 338.0696 -45.45312 340.5618 -46.07812 343.1556 -46.07812 Z M 288.3275 -46.07812 C 291.6087 -46.07812 294.4134 -45.75781 296.7415 -45.11719 C 299.0697 -44.47656 300.9837 -43.49218 302.4837 -42.16406 C 303.9837 -40.83594 305.0775 -39.125 305.765 -37.03125 C 306.4525 -34.9375 306.7962 -32.45312 306.7962 -29.57812 L 306.7962 -1.453125 C 306.7962 -1.015625 306.64 -.6718755 306.3275 -.421875 C 306.015 -.1718745 305.5228 .007812478 304.8509 .1171872 C 304.179 .2265631 303.1868 .2812504 301.8744 .2812504 C 300.4681 .2812504 299.4446 .2265631 298.804 .1171872 C 298.1634 .007812478 297.7103 -.1718745 297.4447 -.421875 C 297.179 -.6718755 297.0462 -1.015625 297.0462 -1.453125 L 297.0462 -4.78125 C 295.3275 -2.9375 293.3665 -1.499999 291.1634 -.4687499 C 288.9603 .5624996 286.515 1.078126 283.8275 1.078126 C 281.6087 1.078126 279.5697 .7890627 277.7103 .2109369 C 275.8509 -.3671876 274.2415 -1.226563 272.8822 -2.367188 C 271.5228 -3.507812 270.4681 -4.921875 269.7181 -6.609375 C 268.9681 -8.296874 268.5931 -10.26562 268.5931 -12.51562 C 268.5931 -14.95312 269.0697 -17.07031 270.0228 -18.86719 C 270.9759 -20.66406 272.3978 -22.14844 274.2884 -23.32031 C 276.179 -24.49219 278.5306 -25.35938 281.3431 -25.92187 C 284.1556 -26.48437 287.4212 -26.76562 291.14 -26.76562 L 295.2181 -26.76562 L 295.2181 -29.29687 C 295.2181 -30.60937 295.0853 -31.75781 294.8197 -32.74219 C 294.554 -33.72656 294.1165 -34.54687 293.5072 -35.20312 C 292.8978 -35.85938 292.0853 -36.34375 291.0697 -36.65625 C 290.054 -36.96875 288.7962 -37.125 287.2962 -37.125 C 285.3275 -37.125 283.5697 -36.90625 282.0228 -36.46875 C 280.4759 -36.03125 279.1087 -35.54688 277.9212 -35.01562 C 276.7337 -34.48438 275.7415 -34 274.9447 -33.5625 C 274.1478 -33.125 273.4994 -32.90625 272.9994 -32.90625 C 272.6556 -32.90625 272.3509 -33.01562 272.0853 -33.23438 C 271.8196 -33.45313 271.6009 -33.76562 271.429 -34.17188 C 271.2571 -34.57812 271.1244 -35.07813 271.0306 -35.67188 C 270.9369 -36.26562 270.89 -36.92187 270.89 -37.64062 C 270.89 -38.60937 270.9681 -39.375 271.1244 -39.9375 C 271.2806 -40.5 271.5775 -41.00781 272.015 -41.46094 C 272.4525 -41.91406 273.2181 -42.41406 274.3119 -42.96094 C 275.4056 -43.50781 276.6869 -44.01562 278.1556 -44.48438 C 279.6243 -44.95312 281.2259 -45.33594 282.9603 -45.63281 C 284.6947 -45.92969 286.4837 -46.07812 288.3275 -46.07812 Z M 149.0156 -46.07812 C 151.8594 -46.07812 154.2578 -45.60938 156.2109 -44.67188 C 158.1641 -43.73438 159.7422 -42.46094 160.9453 -40.85156 C 162.1484 -39.24219 163.0156 -37.35938 163.5469 -35.20312 C 164.0781 -33.04688 164.3438 -30.45312 164.3438 -27.42187 L 164.3438 -1.59375 C 164.3438 -1.28125 164.25 -1.007812 164.0625 -.7734377 C 163.875 -.5390622 163.5625 -.3437502 163.125 -.1874995 C 162.6875 -.03124991 162.086 .08593725 161.3203 .164062 C 160.5547 .242188 159.6094 .2812504 158.4844 .2812504 C 157.3281 .2812504 156.3672 .242188 155.6016 .164062 C 154.8359 .08593725 154.2344 -.03124991 153.7969 -.1874995 C 153.3594 -.3437502 153.0469 -.5390622 152.8594 -.7734377 C 152.6719 -1.007812 152.5781 -1.28125 152.5781 -1.59375 L 152.5781 -25.45312 C 152.5781 -27.48438 152.4297 -29.07812 152.1328 -30.23437 C 151.836 -31.39062 151.4062 -32.38281 150.8438 -33.21094 C 150.2812 -34.03906 149.5547 -34.67969 148.6641 -35.13281 C 147.7734 -35.58594 146.7344 -35.8125 145.5469 -35.8125 C 144.0469 -35.8125 142.5312 -35.26562 141 -34.17188 C 139.4688 -33.07812 137.875 -31.48437 136.2188 -29.39062 L 136.2188 -1.59375 C 136.2188 -1.28125 136.125 -1.007812 135.9375 -.7734377 C 135.75 -.5390622 135.4297 -.3437502 134.9766 -.1874995 C 134.5234 -.03124991 133.9219 .08593725 133.1719 .164062 C 132.4219 .242188 131.4688 .2812504 130.3125 .2812504 C 129.1563 .2812504 128.2031 .242188 127.4531 .164062 C 126.7031 .08593725 126.1016 -.03124991 125.6484 -.1874995 C 125.1953 -.3437502 124.875 -.5390622 124.6875 -.7734377 C 124.5 -1.007812 124.4063 -1.28125 124.4063 -1.59375 L 124.4063 -43.40625 C 124.4063 -43.71875 124.4844 -43.99218 124.6406 -44.22656 C 124.7969 -44.46093 125.0781 -44.65625 125.4844 -44.8125 C 125.8906 -44.96875 126.4141 -45.08594 127.0547 -45.16406 C 127.6953 -45.24219 128.5 -45.28125 129.4688 -45.28125 C 130.4688 -45.28125 131.2969 -45.24219 131.9531 -45.16406 C 132.6094 -45.08594 133.1172 -44.96875 133.4766 -44.8125 C 133.8359 -44.65625 134.0938 -44.46093 134.25 -44.22656 C 134.4062 -43.99218 134.4844 -43.71875 134.4844 -43.40625 L 134.4844 -38.57812 C 136.7969 -41.07812 139.1484 -42.95312 141.5391 -44.20312 C 143.9297 -45.45312 146.4219 -46.07812 149.0156 -46.07812 Z M 94.18751 -46.07812 C 97.46877 -46.07812 100.2734 -45.75781 102.6016 -45.11719 C 104.9297 -44.47656 106.8438 -43.49218 108.3438 -42.16406 C 109.8438 -40.83594 110.9375 -39.125 111.625 -37.03125 C 112.3125 -34.9375 112.6563 -32.45312 112.6563 -29.57812 L 112.6563 -1.453125 C 112.6563 -1.015625 112.5 -.6718755 112.1875 -.421875 C 111.875 -.1718745 111.3828 .007812478 110.711 .1171872 C 110.0391 .2265631 109.0469 .2812504 107.7344 .2812504 C 106.3281 .2812504 105.3047 .2265631 104.6641 .1171872 C 104.0234 .007812478 103.5703 -.1718745 103.3047 -.421875 C 103.0391 -.6718755 102.9063 -1.015625 102.9063 -1.453125 L 102.9063 -4.78125 C 101.1875 -2.9375 99.22658 -1.499999 97.02345 -.4687499 C 94.82032 .5624996 92.37501 1.078126 89.68751 1.078126 C 87.46875 1.078126 85.4297 .7890627 83.57032 .2109369 C 81.71095 -.3671876 80.10157 -1.226563 78.7422 -2.367188 C 77.38282 -3.507812 76.32813 -4.921875 75.57813 -6.609375 C 74.82813 -8.296874 74.45313 -10.26562 74.45313 -12.51562 C 74.45313 -14.95312 74.9297 -17.07031 75.88282 -18.86719 C 76.83595 -20.66406 78.25782 -22.14844 80.14845 -23.32031 C 82.03907 -24.49219 84.39063 -25.35938 87.20313 -25.92187 C 90.01563 -26.48437 93.28126 -26.76562 97.00002 -26.76562 L 101.0781 -26.76562 L 101.0781 -29.29687 C 101.0781 -30.60937 100.9453 -31.75781 100.6797 -32.74219 C 100.4141 -33.72656 99.97658 -34.54687 99.3672 -35.20312 C 98.75783 -35.85938 97.94532 -36.34375 96.9297 -36.65625 C 95.91407 -36.96875 94.65626 -37.125 93.15626 -37.125 C 91.18751 -37.125 89.4297 -36.90625 87.88282 -36.46875 C 86.33595 -36.03125 84.96876 -35.54688 83.78126 -35.01562 C 82.59376 -34.48438 81.60157 -34 80.8047 -33.5625 C 80.00782 -33.125 79.35938 -32.90625 78.85938 -32.90625 C 78.51563 -32.90625 78.21095 -33.01562 77.94532 -33.23438 C 77.6797 -33.45313 77.46095 -33.76562 77.28907 -34.17188 C 77.11719 -34.57812 76.98438 -35.07813 76.89063 -35.67188 C 76.79688 -36.26562 76.75001 -36.92187 76.75001 -37.64062 C 76.75001 -38.60937 76.82813 -39.375 76.98438 -39.9375 C 77.14063 -40.5 77.43751 -41.00781 77.87501 -41.46094 C 78.31251 -41.91406 79.07813 -42.41406 80.17188 -42.96094 C 81.26563 -43.50781 82.54688 -44.01562 84.01563 -44.48438 C 85.48438 -44.95312 87.08595 -45.33594 88.82032 -45.63281 C 90.5547 -45.92969 92.34376 -46.07812 94.18751 -46.07812 Z M 2.39063 -60.65625 L 45.14063 -60.65625 C 45.42188 -60.65625 45.67969 -60.57031 45.91407 -60.39844 C 46.14844 -60.22656 46.34376 -59.94531 46.5 -59.55469 C 46.65626 -59.16406 46.77344 -58.64062 46.85157 -57.98437 C 46.9297 -57.32812 46.96875 -56.53125 46.96876 -55.59375 C 46.96875 -54.6875 46.9297 -53.91406 46.85157 -53.27344 C 46.77344 -52.63281 46.65626 -52.11718 46.5 -51.72656 C 46.34376 -51.33594 46.14844 -51.04688 45.91407 -50.85938 C 45.67969 -50.67187 45.42188 -50.57812 45.14063 -50.57812 L 29.95313 -50.57812 L 29.95313 -1.6875 C 29.95313 -1.375 29.85157 -1.09375 29.64845 -.84375 C 29.44532 -.5937495 29.10938 -.3906251 28.64063 -.2343755 C 28.17188 -.07812478 27.53907 .04687487 26.7422 .1406246 C 25.94532 .2343755 24.95313 .2812504 23.76563 .2812504 C 22.57813 .2812504 21.58594 .2343755 20.78907 .1406246 C 19.9922 .04687487 19.35938 -.07812478 18.89063 -.2343755 C 18.42188 -.3906251 18.08595 -.5937495 17.88282 -.84375 C 17.6797 -1.09375 17.57813 -1.375 17.57813 -1.6875 L 17.57813 -50.57812 L 2.39063 -50.57812 C 2.07813 -50.57812 1.812507 -50.67187 1.593756 -50.85938 C 1.375005 -51.04688 1.187506 -51.33594 1.031259 -51.72656 C .875005 -52.11718 .7578163 -52.63281 .6796929 -53.27344 C .6015694 -53.91406 .5625042 -54.6875 .5625042 -55.59375 C .5625042 -56.53125 .6015694 -57.32812 .6796929 -57.98437 C .7578163 -58.64062 .875005 -59.16406 1.031259 -59.55469 C 1.187506 -59.94531 1.375005 -60.22656 1.593756 -60.39844 C 1.812507 -60.57031 2.07813 -60.65625 2.39063 -60.65625 Z M 398.6868 -60.9375 C 399.9055 -60.9375 400.9056 -60.89062 401.6868 -60.79687 C 402.4681 -60.70312 403.0931 -60.57812 403.5618 -60.42187 C 404.0306 -60.26562 404.3665 -60.0625 404.5696 -59.8125 C 404.7728 -59.5625 404.8743 -59.28125 404.8743 -58.96875 L 404.8743 -10.17188 L 423.9525 -10.17188 C 424.265 -10.17188 424.5384 -10.08594 424.7728 -9.914062 C 425.0071 -9.742188 425.2025 -9.460938 425.3587 -9.070312 C 425.515 -8.679687 425.6321 -8.164062 425.7103 -7.523438 C 425.7884 -6.882812 425.8274 -6.09375 425.8275 -5.15625 C 425.8274 -4.21875 425.7884 -3.429688 425.7103 -2.789063 C 425.6321 -2.148438 425.515 -1.617188 425.3587 -1.195313 C 425.2025 -.7734377 425.0071 -.4687499 424.7728 -.2812504 C 424.5384 -.09374973 424.265 0 423.9525 0 L 396.1556 0 C 395.1243 0 394.2571 -.3046878 393.554 -.9140623 C 392.8509 -1.523438 392.4993 -2.515625 392.4993 -3.890625 L 392.4993 -58.96875 C 392.4993 -59.28125 392.6009 -59.5625 392.804 -59.8125 C 393.0071 -60.0625 393.3431 -60.26562 393.8118 -60.42187 C 394.2806 -60.57812 394.9134 -60.70312 395.7103 -60.79687 C 396.5071 -60.89062 397.4994 -60.9375 398.6868 -60.9375 Z M 59.35938 -63.65625 C 61.98438 -63.65625 63.76563 -63.21094 64.70313 -62.32031 C 65.64063 -61.42969 66.10938 -59.84375 66.10938 -57.5625 C 66.10938 -55.1875 65.62501 -53.54687 64.65626 -52.64062 C 63.68751 -51.73438 61.89062 -51.28125 59.26563 -51.28125 C 56.60939 -51.28125 54.82032 -51.71875 53.89845 -52.59375 C 52.97657 -53.46875 52.51563 -55.04687 52.51563 -57.32812 C 52.51563 -59.70312 52.9922 -61.35156 53.94532 -62.27344 C 54.89845 -63.19531 56.70313 -63.65625 59.35938 -63.65625 Z "/>
</g>
</g>
</svg>
