<?xml version="1.0" encoding="utf-8"?>
<!-- Generator: Adobe Illustrator 16.0.3, SVG Export Plug-In . SVG Version: 6.00 Build 0)  -->
<!DOCTYPE svg PUBLIC "-//W3C//DTD SVG 1.1//EN" "http://www.w3.org/Graphics/SVG/1.1/DTD/svg11.dtd">
<svg version="1.1" id="Layer_1" xmlns="http://www.w3.org/2000/svg" xmlns:xlink="http://www.w3.org/1999/xlink" x="0px" y="0px"
	 width="600px" height="250px" viewBox="0 0 600 250" enable-background="new 0 0 600 250" xml:space="preserve">
<g>
	<path fill="#F5F8E0" d="M199.181,4.706v3.003c-2.003,0.439-3.955,1.697-5.859,3.772c-1.904,2.076-3.955,5.262-6.152,9.558
		l-23.511,46.655v27.319c0,3.761,0.304,6.495,0.916,8.203c0.61,1.71,1.732,2.882,3.369,3.516c1.635,0.635,4.259,1.025,7.874,1.172
		v3.003c-4.688-0.293-11.036-0.439-19.043-0.439c-8.595,0-15.015,0.146-19.263,0.439v-3.003c3.613-0.146,6.237-0.537,7.874-1.172
		c1.635-0.634,2.758-1.806,3.369-3.516c0.61-1.708,0.916-4.442,0.916-8.203V72.381l-30.396-56.104
		c-1.856-3.369-3.455-5.614-4.797-6.738c-1.344-1.123-2.649-1.685-3.918-1.685V4.706c3.906,0.293,8.3,0.439,13.184,0.439
		c9.716,0,16.723-0.146,21.021-0.439v3.149c-7.031,0-10.547,1.93-10.547,5.786c0,1.465,0.513,3.199,1.538,5.2l24.976,47.827
		l19.116-38.086c2.734-5.517,4.102-9.814,4.102-12.891c0-2.831-1.099-4.845-3.296-6.042c-2.197-1.196-5.519-1.842-9.961-1.941V4.706
		c5.713,0.293,11.474,0.439,17.285,0.439C192.467,5.145,196.202,4.999,199.181,4.706z"/>
	<path fill="#F5F8E0" d="M236.205,23.895c-1.637,0.635-2.759,1.807-3.369,3.516c-0.611,1.71-0.916,4.444-0.916,8.203v59.399
		c0,3.761,0.304,6.495,0.916,8.203c0.61,1.71,1.732,2.882,3.369,3.516c1.635,0.635,4.259,1.025,7.874,1.172v3.003
		c-4.59-0.293-10.938-0.439-19.043-0.439c-8.595,0-14.991,0.146-19.189,0.439v-3.003c3.613-0.146,6.237-0.537,7.874-1.172
		c1.635-0.634,2.758-1.806,3.369-3.516c0.61-1.708,0.916-4.442,0.916-8.203V35.614c0-3.759-0.306-6.493-0.916-8.203
		c-0.611-1.708-1.734-2.88-3.369-3.516c-1.637-0.634-4.261-1.025-7.874-1.172V19.72c4.149,0.293,10.547,0.439,19.189,0.439
		c8.104,0,14.453-0.146,19.043-0.439v3.003C240.464,22.87,237.84,23.261,236.205,23.895z"/>
	<path fill="#F5F8E0" d="M323.584,8.88c-1.637,0.635-2.76,1.807-3.369,3.516c-0.611,1.71-0.916,4.444-0.916,8.203v54.932
		c0,8.496-0.16,16.029-0.477,22.595c-0.318,6.568-1.014,12.074-2.088,16.516c-1.123,4.688-3.102,8.874-5.932,12.561
		c-2.832,3.686-6.434,6.592-10.804,8.715c-4.371,2.125-9.338,3.188-14.905,3.188c-4.882,0-9.082-0.904-12.598-2.711
		c-4.785-2.49-7.178-5.932-7.178-10.326c0-2.344,0.745-4.261,2.234-5.75c1.49-1.49,3.382-2.234,5.676-2.234
		c2.393,0,4.371,0.732,5.933,2.197c1.563,1.465,2.344,3.442,2.344,5.933c0,2.098-0.561,3.795-1.685,5.09
		c-1.123,1.293-2.661,2.135-4.614,2.527c0.879,0.879,2.259,1.5,4.138,1.867c1.88,0.365,3.699,0.549,5.457,0.549
		c4.345,0,8.093-1.123,11.243-3.369s5.407-5.371,6.774-9.375c1.025-3.125,1.709-7.02,2.051-11.682
		c0.342-4.663,0.514-12.219,0.514-22.669V20.599c0-3.759-0.307-6.493-0.916-8.203c-0.611-1.708-1.734-2.88-3.369-3.516
		c-1.637-0.634-4.261-1.025-7.874-1.172V4.706c4.149,0.293,10.547,0.439,19.19,0.439c8.008,0,14.355-0.146,19.043-0.439v3.003
		C327.842,7.855,325.219,8.247,323.584,8.88z"/>
	<path fill="#F5F8E0" d="M372.436,23.895c-1.636,0.635-2.759,1.807-3.369,3.516c-0.61,1.71-0.915,4.444-0.915,8.203v59.399
		c0,3.761,0.305,6.495,0.915,8.203c0.61,1.71,1.733,2.882,3.369,3.516c1.636,0.635,4.26,1.025,7.874,1.172v3.003
		c-4.59-0.293-10.938-0.439-19.043-0.439c-8.595,0-14.99,0.146-19.189,0.439v-3.003c3.613-0.146,6.237-0.537,7.874-1.172
		c1.635-0.634,2.758-1.806,3.369-3.516c0.609-1.708,0.915-4.442,0.915-8.203V35.614c0-3.759-0.306-6.493-0.915-8.203
		c-0.611-1.708-1.734-2.88-3.369-3.516c-1.637-0.634-4.261-1.025-7.874-1.172V19.72c4.149,0.293,10.547,0.439,19.189,0.439
		c8.104,0,14.453-0.146,19.043-0.439v3.003C376.695,22.87,374.071,23.261,372.436,23.895z"/>
	<path fill="#F5F8E0" d="M476.367,24.225c-1.686,0.855-2.846,2.259-3.479,4.211c-0.635,1.954-0.952,4.834-0.952,8.643v74.561h-3.442
		l-59.985-83.057v64.893c0,3.858,0.341,6.764,1.025,8.716c0.684,1.954,1.965,3.358,3.846,4.211c1.879,0.855,4.797,1.355,8.752,1.501
		v3.003c-3.564-0.293-8.668-0.439-15.308-0.439c-5.958,0-10.596,0.146-13.916,0.439v-3.003c3.467-0.146,6.042-0.646,7.728-1.501
		c1.684-0.854,2.844-2.258,3.479-4.211c0.634-1.952,0.952-4.858,0.952-8.716V35.614c0-3.759-0.306-6.493-0.915-8.203
		c-0.611-1.708-1.734-2.88-3.369-3.516c-1.637-0.634-4.261-1.025-7.874-1.172V19.72c3.271,0.293,7.91,0.439,13.916,0.439
		c5.518,0,10.132-0.146,13.843-0.439l47.827,66.577V37.079c0-3.856-0.329-6.75-0.989-8.679c-0.658-1.928-1.94-3.32-3.845-4.175
		c-1.904-0.854-4.834-1.355-8.789-1.501V19.72c3.563,0.293,8.667,0.439,15.308,0.439c6.006,0,10.645-0.146,13.916-0.439v3.003
		C480.626,22.87,478.051,23.371,476.367,24.225z"/>
</g>
<g>
	<path fill="#BDD684" d="M155.2,143.361c-1.637,0.635-2.759,1.807-3.369,3.516c-0.611,1.71-0.916,4.443-0.916,8.203v77.417
		c0,2.833,0.194,4.896,0.586,6.188c0.39,1.295,1.099,2.161,2.124,2.601s2.685,0.659,4.98,0.659h4.98
		c3.466,0,7.262-1.758,11.389-5.273c4.125-3.516,7.824-8.141,11.096-13.879c3.271-5.737,5.468-11.707,6.592-17.908h3.442
		c-0.293,3.564-0.439,8.155-0.439,13.77c0,10.84,0.341,19.752,1.025,26.733c-6.788-0.293-18.237-0.439-34.351-0.439
		c-23.39,0-40.895,0.146-52.515,0.439v-3.003c3.223-0.146,5.554-0.537,6.995-1.172c1.439-0.634,2.417-1.806,2.93-3.516
		c0.513-1.709,0.769-4.442,0.769-8.203V155.08c0-3.76-0.269-6.493-0.806-8.203c-0.538-1.709-1.527-2.881-2.966-3.516
		c-1.441-0.634-3.748-1.025-6.921-1.172v-3.003c5.713,0.293,14.623,0.439,26.733,0.439c11.523,0,20.361-0.146,26.514-0.439v3.003
		C159.459,142.336,156.835,142.728,155.2,143.361z"/>
	<path fill="#BDD684" d="M247.156,158.376c-1.417,0.636-2.38,1.794-2.893,3.479c-0.513,1.684-0.769,4.431-0.769,8.239v59.399
		c0,3.761,0.256,6.494,0.769,8.203c0.513,1.71,1.476,2.882,2.893,3.516c1.416,0.635,3.735,1.025,6.958,1.172v3.003
		c-5.469-0.293-13.55-0.439-24.243-0.439c-11.915,0-20.581,0.146-26.001,0.439v-3.003c3.223-0.146,5.554-0.537,6.995-1.172
		c1.439-0.634,2.417-1.806,2.93-3.516c0.513-1.709,0.769-4.442,0.769-8.203v-59.399c0-3.759-0.269-6.493-0.806-8.203
		c-0.538-1.708-1.527-2.88-2.966-3.516c-1.441-0.634-3.748-1.025-6.921-1.172v-3.003c5.42,0.293,14.086,0.439,26.001,0.439
		c10.693,0,18.774-0.146,24.243-0.439v3.003C250.891,157.351,248.571,157.742,247.156,158.376z"/>
	<path fill="#BDD684" d="M345.228,245.388c-6.494-0.293-17.457-0.439-32.887-0.439c-21.972,0-38.477,0.146-49.511,0.439v-3.003
		c3.223-0.146,5.554-0.537,6.995-1.172c1.439-0.634,2.417-1.806,2.93-3.516c0.513-1.709,0.769-4.442,0.769-8.203v-59.399
		c0-3.759-0.269-6.493-0.806-8.203c-0.538-1.708-1.527-2.88-2.966-3.516c-1.441-0.634-3.748-1.025-6.921-1.172v-3.003
		c11.034,0.293,27.539,0.439,49.511,0.439c14.014,0,23.975-0.146,29.883-0.439c-0.732,7.617-1.098,14.015-1.098,19.189
		c0,4.102,0.17,7.203,0.512,9.302h-3.516c-2.002-8.936-5.176-15.345-9.521-19.226c-4.346-3.883-9.863-5.823-16.553-5.823h-1.904
		c-1.904,0-3.395,0.196-4.467,0.586c-1.074,0.392-1.881,1.147-2.418,2.271c-0.537,1.124-0.805,2.809-0.805,5.054V198h3.441
		c3.32,0,6.164-0.866,8.533-2.6c2.367-1.732,4.236-3.883,5.604-6.445c1.365-2.564,2.318-5.164,2.855-7.801h3.443
		c-0.342,3.711-0.514,7.544-0.514,11.499l0.074,6.812c0,4.883,0.293,10.986,0.879,18.311h-3.443
		c-0.732-4.785-2.6-8.776-5.604-11.975c-3.002-3.197-6.945-4.798-11.828-4.798h-3.441v32.959c0,2.247,0.268,3.944,0.805,5.091
		c0.537,1.147,1.344,1.916,2.418,2.307c1.072,0.392,2.563,0.586,4.467,0.586h3.443c6.982,0,12.805-2.185,17.467-6.555
		c4.664-4.369,8.021-11.536,10.072-21.497h3.516c-0.342,2.687-0.514,6.274-0.514,10.767
		C344.128,230.179,344.495,237.088,345.228,245.388z"/>
	<path fill="#BDD684" d="M494.274,154.201v3.003c-2.589,1.222-5.188,3.552-7.801,6.995c-2.612,3.441-5.017,8.093-7.214,13.952
		l-24.756,67.236c-1.807-0.243-3.442-0.366-4.907-0.366s-3.125,0.123-4.98,0.366l-22.119-53.906l-20.581,53.906
		c-1.856-0.243-3.516-0.366-4.98-0.366s-3.125,0.123-4.98,0.366l-35.229-78.589c-2.979-6.25-5.933-9.448-8.862-9.595v-3.003
		c5.127,0.293,12.476,0.439,22.046,0.439c10.693,0,18.604-0.146,23.73-0.439v3.003c-1.71,0.146-3.064,0.794-4.064,1.94
		c-1.002,1.148-1.502,2.674-1.502,4.578c0,1.758,0.464,3.785,1.392,6.079l19.702,46.509l11.499-29.37l-8.276-20.142
		c-1.221-3.027-2.637-5.357-4.248-6.994c-1.611-1.636-3.149-2.502-4.614-2.601v-3.003c5.127,0.293,12.476,0.439,22.046,0.439
		c11.377,0,19.775-0.146,25.195-0.439v3.003c-2.979,0.146-5.164,0.696-6.555,1.647c-1.393,0.953-2.088,2.43-2.088,4.432
		c0,1.66,0.487,3.834,1.465,6.519l17.432,47.314l8.936-24.243c3.467-9.423,5.2-16.943,5.2-22.559c0-8.447-4.028-12.817-12.085-13.11
		v-3.003c7.471,0.293,14.014,0.439,19.629,0.439C487.39,154.641,491.246,154.494,494.274,154.201z"/>
</g>
<g>
</g>
<g>
</g>
<g>
</g>
<g>
</g>
<g>
</g>
<g>
</g>
</svg>
